<svg xmlns="http://www.w3.org/2000/svg" width="27.972" height="33.486" viewBox="0 0 27.972 33.486">
  <path id="Path_1592" data-name="Path 1592" d="M-641.258-547.662a4.826,4.826,0,0,1-1.555,3.717,4.737,4.737,0,0,1-3.1,1.3,4.756,4.756,0,0,1-2.574-.6,4.8,4.8,0,0,1-1.88-1.848,4.811,4.811,0,0,1-.641-2.574h-.142q-3.792,0-7.584,0a1.357,1.357,0,0,1-.934-.327,1.229,1.229,0,0,1-.452-.972,5.692,5.692,0,0,1,3.058-5.137.958.958,0,0,0,.537-.9c0-2.628-.009-5.256,0-7.884a9.609,9.609,0,0,1,1.192-4.633,9.777,9.777,0,0,1,3.844-3.9,9.526,9.526,0,0,1,3.208-1.123c.268-.043.538-.074.819-.113v-.108q0-1,0-2.01a1.324,1.324,0,0,1,1.405-1.353,1.327,1.327,0,0,1,1.246,1.295c0,.687,0,1.374,0,2.062v.116c.231.03.456.057.68.089a9.208,9.208,0,0,1,2.726.826,9.772,9.772,0,0,1,5.156,5.809,9,9,0,0,1,.474,2.4c.017.282.028.565.028.848q0,3.844,0,7.687a.931.931,0,0,0,.526.879,5.743,5.743,0,0,1,2.939,3.87,5.239,5.239,0,0,1,.132,1.335,1.333,1.333,0,0,1-1.179,1.229q-.155.01-.31.01h-7.62Zm6.151-2.656a.192.192,0,0,0-.006-.041c-.009-.022-.02-.044-.032-.065a3.261,3.261,0,0,0-1.35-1.359,3.4,3.4,0,0,1-1.893-3.075c-.028-2.655-.007-5.311-.009-7.966a6.97,6.97,0,0,0-.208-1.709,7.134,7.134,0,0,0-2.551-3.946,7.064,7.064,0,0,0-3.549-1.485,13.627,13.627,0,0,0-2.1-.048,7.443,7.443,0,0,0-1.283.136,7.052,7.052,0,0,0-4.286,2.665,6.991,6.991,0,0,0-1.5,4.366c-.01,2.655,0,5.311,0,7.966a2.942,2.942,0,0,1-.036.484,3.488,3.488,0,0,1-1.878,2.621,3.157,3.157,0,0,0-1.29,1.265c-.033.058-.061.119-.1.19Zm-8.806,2.663h-4.443a2.163,2.163,0,0,0,1.048,2.023,2.1,2.1,0,0,0,2.337.006A2.165,2.165,0,0,0-643.912-547.654Z" transform="translate(660.118 576.121)" fill="#d8d8d8"/>
</svg>
