<svg xmlns="http://www.w3.org/2000/svg" width="30.649" height="30.007" viewBox="0 0 30.649 30.007">
  <path id="Path_2160" data-name="Path 2160" d="M565.542-296.828a2.9,2.9,0,0,1-.842,2.072,3.067,3.067,0,0,1-2.1.858,2.88,2.88,0,0,1-1.423,2.535,2.988,2.988,0,0,1-2.914.071,1.5,1.5,0,0,1-.089.185,7.578,7.578,0,0,1-.675.993c-.562.612-1.164,1.186-1.756,1.77a2.97,2.97,0,0,1-3.31.772,3.066,3.066,0,0,1-2.066-2.739c-.006-.053-.014-.106-.02-.158a3.261,3.261,0,0,1-3.149-3.147,3.1,3.1,0,0,1-2.267-1.051,3.117,3.117,0,0,1-.8-2.365,9.4,9.4,0,0,1-.972-.278,3.123,3.123,0,0,1-1.452-4.568.267.267,0,0,0,.007-.329,9.96,9.96,0,0,1-1.4-5.794,8.587,8.587,0,0,1,5.913-7.725,9.682,9.682,0,0,1,8.026.923c.114.064.227.131.345.2a11.288,11.288,0,0,1,3.2-1.69,9.644,9.644,0,0,1,7.388.358,8.786,8.786,0,0,1,5.086,6.7,10.294,10.294,0,0,1-1.856,7.919.563.563,0,0,0-.086.565,2.9,2.9,0,0,1-1.99,3.795A7.85,7.85,0,0,1,565.542-296.828ZM549.011-301.9a1.021,1.021,0,0,0,.131.011,3.112,3.112,0,0,1,3.2,2.848c.012.152.079.184.221.19a3.12,3.12,0,0,1,2.891,2.273.533.533,0,0,0,.1.23c.536.516,1.08,1.023,1.618,1.536.207.2.407.4.6.611.318.339.613.7.95,1.018a1.553,1.553,0,0,0,.6.33,1.056,1.056,0,0,0,1.394-1.227,1.588,1.588,0,0,0-.49-.88c-.677-.674-1.349-1.352-2.027-2.025-.345-.343-.7-.677-1.015-.984l1.338-1.36a2.432,2.432,0,0,0,.181.229q1.387,1.4,2.777,2.791a1.808,1.808,0,0,0,.839.52,1.061,1.061,0,0,0,1.346-1.264,1.647,1.647,0,0,0-.5-.875c-.721-.717-1.439-1.438-2.161-2.155-.3-.293-.6-.578-.867-.834l1.3-1.337c.064.061.132.124.2.189.944.945,1.882,1.9,2.838,2.829a2.067,2.067,0,0,0,.692.451,1.058,1.058,0,0,0,1.467-1.157,1.61,1.61,0,0,0-.5-.926q-2.482-2.476-4.96-4.956c-.058-.058-.121-.112-.178-.165a3.458,3.458,0,0,1-4.6-.511.754.754,0,0,0-1.106-.045c-.448.384-.882.784-1.334,1.164a4.307,4.307,0,0,1-4.916.475,3.446,3.446,0,0,1-1.363-1.206,2.224,2.224,0,0,1,.486-2.94q2.025-1.789,4.059-3.568c.281-.247.562-.5.857-.757-.064-.037-.1-.057-.13-.074a7.842,7.842,0,0,0-5.328-.758,6.646,6.646,0,0,0-4.616,3.386,7.242,7.242,0,0,0-.717,5.053,8.261,8.261,0,0,0,.851,2.352,3.225,3.225,0,0,1,3.492-1.338A3.135,3.135,0,0,1,549.011-301.9Zm18.05-.687c.02-.026.045-.055.065-.087a8.7,8.7,0,0,0,1.384-5.944,7.133,7.133,0,0,0-1.782-3.921A7.3,7.3,0,0,0,561.082-315a9.331,9.331,0,0,0-5.985,2.329c-1.192.969-2.316,2.022-3.47,3.037q-1.146,1.007-2.292,2.015c-.25.221-.243.421.009.642.041.036.079.074.119.111a2.507,2.507,0,0,0,3.355.036q.59-.511,1.174-1.028a2.617,2.617,0,0,1,3.805.156,1.586,1.586,0,0,0,2.291.094c.163-.143.324-.29.487-.434l1.58-1.4,1.222,1.378-.948.849Zm-16.8,10.228a1.253,1.253,0,0,0,.952-.324c.743-.726,1.486-1.454,2.2-2.206a1.245,1.245,0,0,0-.071-1.743,1.263,1.263,0,0,0-1.782-.029c-.72.705-1.439,1.413-2.137,2.141a1.187,1.187,0,0,0-.255,1.377A1.267,1.267,0,0,0,550.264-292.361Zm.266-6.433a1.254,1.254,0,0,0-.792-1.146,1.174,1.174,0,0,0-1.393.256c-.7.667-1.387,1.355-2.058,2.054a1.237,1.237,0,0,0,.056,1.775,1.255,1.255,0,0,0,1.8,0c.672-.665,1.338-1.337,2.009-2A1.275,1.275,0,0,0,550.529-298.794Zm6.046,6.57a1.343,1.343,0,0,0-.846-1.307,1.231,1.231,0,0,0-1.4.352c-.6.579-1.178,1.172-1.764,1.761a1.233,1.233,0,0,0-.015,1.773,1.263,1.263,0,0,0,1.832.046c.614-.606,1.219-1.219,1.83-1.827A1.185,1.185,0,0,0,556.576-292.223Zm-13.523-7.917a1.242,1.242,0,0,0,.808,1.131,1.173,1.173,0,0,0,1.352-.258c.538-.5,1.057-1.029,1.564-1.565a1.221,1.221,0,0,0,.355-1.152,1.3,1.3,0,0,0-.955-.986,1.249,1.249,0,0,0-1.289.4c-.492.474-.966.966-1.451,1.447A1.328,1.328,0,0,0,543.052-300.14Z" transform="translate(-540.04 317.11)" fill="#d8d8d8" stroke="#d8d8d8" stroke-width="0.5"/>
</svg>
