<svg xmlns="http://www.w3.org/2000/svg" width="28.601" height="31.529" viewBox="0 0 28.601 31.529">
  <path id="Path_27" data-name="Path 27" d="M198.975,309.49a2.671,2.671,0,0,1-.4-.186,1.05,1.05,0,0,1-.422-.945,10.809,10.809,0,0,0-.632-3.653,11.464,11.464,0,0,0-8.117-7.538,11.716,11.716,0,0,0-14.359,8.424,11.882,11.882,0,0,0-.367,2.751,1.748,1.748,0,0,1-.1.572.977.977,0,0,1-.719.574h-.34c-.066-.026-.133-.05-.2-.077a.984.984,0,0,1-.6-.961,13.188,13.188,0,0,1,.993-5.047,13.572,13.572,0,0,1,8.121-7.781c.029-.011.058-.021.087-.033.008,0,.013-.015.019-.022a8.708,8.708,0,0,1-4.318-7.582,8.447,8.447,0,0,1,2.723-6.382,8.774,8.774,0,0,1,12.808.712,8.472,8.472,0,0,1,1.932,7.147,8.7,8.7,0,0,1-4.212,6.108l.19.073a13.592,13.592,0,0,1,8.51,9.079,12.416,12.416,0,0,1,.523,3.178c0,.076.017.151.026.227v.5a3.749,3.749,0,0,1-.207.47,1.033,1.033,0,0,1-.6.4Zm-5.692-21.5c-.04-.394-.062-.791-.124-1.182a6.86,6.86,0,0,0-5.8-5.722,6.4,6.4,0,0,0-5.055,1.339,7.007,7.007,0,0,0,2.3,12.257,3.206,3.206,0,0,0,1.277.17,5.107,5.107,0,0,1,.972-.009,3.491,3.491,0,0,0,1.252-.125A6.979,6.979,0,0,0,193.283,287.988Z" transform="translate(-172.119 -278.562)" fill="#d8d8d8" stroke="#d8d8d8" stroke-width="1.2" opacity="0.999"/>
</svg>
