<svg xmlns="http://www.w3.org/2000/svg" width="29.358" height="29.357" viewBox="0 0 29.358 29.357">
  <path id="Path_1651" data-name="Path 1651" d="M1215.267,117.964c.254-1.606.471-3.463.865-5.282a2.628,2.628,0,0,0-.875-2.855c-1.22-1.08-2.3-2.315-3.454-3.475a2.853,2.853,0,0,1-.808-3.135,2.9,2.9,0,0,1,2.594-1.943c1.806-.245,3.6-.54,5.409-.8a1.183,1.183,0,0,0,.991-.762c.823-1.79,1.684-3.562,2.516-5.347a2.764,2.764,0,0,1,5.14-.03c.84,1.782,1.709,3.55,2.53,5.341a1.282,1.282,0,0,0,1.1.811c1.8.252,3.6.536,5.409.795a2.909,2.909,0,0,1,1.73,5.041c-1.353,1.377-2.683,2.777-4.041,4.15a1.26,1.26,0,0,0-.4,1.193c.338,2.027.645,4.06.971,6.089a2.77,2.77,0,0,1-1.135,2.849,2.579,2.579,0,0,1-2.986.135c-1.647-.918-3.308-1.814-4.934-2.767a1.33,1.33,0,0,0-1.519.016c-1.631.946-3.283,1.857-4.941,2.756C1217.432,121.83,1215.21,120.463,1215.267,117.964Zm2.024.1c-.037.938.438,1.229,1.178.832,1.7-.911,3.4-1.815,5.086-2.754a2.893,2.893,0,0,1,3.014-.025q2.48,1.359,5,2.641a1.182,1.182,0,0,0,.97.1,1.152,1.152,0,0,0,.281-.945c-.278-1.95-.6-3.894-.932-5.836a3.27,3.27,0,0,1,.95-3.074q1.982-1.978,3.881-4.037a1.348,1.348,0,0,0,.356-1.036c-.064-.254-.529-.522-.852-.578-1.752-.307-3.512-.585-5.277-.8a3.168,3.168,0,0,1-2.716-1.989c-.788-1.758-1.624-3.5-2.479-5.222-.139-.281-.485-.637-.733-.635s-.592.359-.731.64c-.88,1.785-1.722,3.59-2.562,5.394a2.95,2.95,0,0,1-2.384,1.778c-1.8.266-3.605.531-5.407.8-.414.063-.959.082-.987.607a1.656,1.656,0,0,0,.423,1.09c1.326,1.432,2.7,2.821,4.06,4.218a2.97,2.97,0,0,1,.866,2.553c-.041.336-.111.669-.164,1C1217.847,114.584,1217.559,116.384,1217.291,118.063Z" transform="translate(-1210.411 -92.207)" fill="#d8d8d8" stroke="#d8d8d8" stroke-width="0.8"/>
</svg>
