<svg xmlns="http://www.w3.org/2000/svg" width="127.212" height="46.671" viewBox="0 0 127.212 46.671">
  <g id="Group_1656" data-name="Group 1656" transform="translate(22.548)">
    <g id="Group_1636" data-name="Group 1636" transform="translate(98.838 34.358)">
      <g id="Ellipse_88" data-name="Ellipse 88" transform="translate(0 0)">
        <g id="Group_1639" data-name="Group 1639">
          <path id="Path_1723" data-name="Path 1723" d="M-184.589,310.339a2.915,2.915,0,0,1-2.913-2.914,2.916,2.916,0,0,1,2.912-2.913,2.917,2.917,0,0,1,2.914,2.914,2.916,2.916,0,0,1-2.914,2.913Zm0-5.461a2.552,2.552,0,0,0-2.548,2.549,2.552,2.552,0,0,0,2.548,2.55,2.551,2.551,0,0,0,2.549-2.55,2.552,2.552,0,0,0-2.549-2.55Z" transform="translate(187.501 -304.512)" fill="#fff"/>
        </g>
      </g>
      <g id="Path_1712" data-name="Path 1712" transform="translate(2.084 1.546)">
        <path id="Path_1724" data-name="Path 1724" d="M-180.062,310.453a.552.552,0,0,0,.357-.107.352.352,0,0,0,.133-.3v-.007a.349.349,0,0,0-.13-.3.582.582,0,0,0-.364-.1h-.607v.8Zm-1.027-1.181h1.058a1.171,1.171,0,0,1,.394.063.817.817,0,0,1,.3.175.7.7,0,0,1,.146.227.768.768,0,0,1,.051.284v.007a.768.768,0,0,1-.042.263.665.665,0,0,1-.117.207.7.7,0,0,1-.178.153.871.871,0,0,1-.227.1l.641.9h-.492l-.582-.828h-.522v.828h-.417Z" transform="translate(181.089 -309.272)" fill="#fff"/>
      </g>
    </g>
    <path id="Path_1729" data-name="Path 1729" d="M-476.7,254.448a9.9,9.9,0,0,0-4.872-1.224,10.21,10.21,0,0,0-5.042,1.279,9.557,9.557,0,0,0-3.633,3.555,10.068,10.068,0,0,0-1.332,5.187,10.146,10.146,0,0,0,1.332,5.215,9.358,9.358,0,0,0,3.633,3.534,10.2,10.2,0,0,0,5,1.255,10.738,10.738,0,0,0,5.737-1.476,8.97,8.97,0,0,0,3.617-4.423l-5.343-1.089a4.219,4.219,0,0,1-4.025,2.181,3.751,3.751,0,0,1-2.6-.979,4.908,4.908,0,0,1-1.466-2.669h13.856v-1.542a10.6,10.6,0,0,0-1.356-5.284A9.15,9.15,0,0,0-476.7,254.448Zm-8.856,6.654a3.966,3.966,0,0,1,1.542-2.182,4.2,4.2,0,0,1,2.445-.787,3.882,3.882,0,0,1,2.368.751,3.994,3.994,0,0,1,1.429,2.22Z" transform="translate(491.581 -235.536)" fill="#fff"/>
    <path id="Path_1753" data-name="Path 1753" d="M-320.616,255.978a11.862,11.862,0,0,0-5.653-1.378,12.069,12.069,0,0,0-5.713,1.378,10.641,10.641,0,0,0-4.133,3.828,10.352,10.352,0,0,0-1.537,5.613,10.456,10.456,0,0,0,1.537,5.632,10.582,10.582,0,0,0,4.133,3.85,12.058,12.058,0,0,0,5.713,1.371,11.857,11.857,0,0,0,5.653-1.371,10.488,10.488,0,0,0,4.1-3.85A10.583,10.583,0,0,0-315,265.42a10.472,10.472,0,0,0-1.515-5.615A10.55,10.55,0,0,0-320.616,255.978Zm-1.392,12.206a5.071,5.071,0,0,1-1.843,1.885,4.686,4.686,0,0,1-2.417.675,5.084,5.084,0,0,1-2.52-.653,4.873,4.873,0,0,1-1.863-1.885,5.536,5.536,0,0,1-.7-2.786,5.438,5.438,0,0,1,.7-2.768,5.07,5.07,0,0,1,1.863-1.885,4.954,4.954,0,0,1,2.52-.675,4.69,4.69,0,0,1,2.417.675,5.089,5.089,0,0,1,1.843,1.885,5.462,5.462,0,0,1,.7,2.768,5.446,5.446,0,0,1-.7,2.759Z" transform="translate(387.692 -236.466)" fill="#fff"/>
    <path id="Path_1754" data-name="Path 1754" d="M-235.878,238.094a10.045,10.045,0,0,0-3.665-3.87,9.58,9.58,0,0,0-5.018-1.393,9.175,9.175,0,0,0-6.39,2.253V222.468H-257.5v31.54h6.554v-1.638a9.171,9.171,0,0,0,6.39,2.253,9.675,9.675,0,0,0,5.018-1.371,9.827,9.827,0,0,0,3.665-3.872,11.691,11.691,0,0,0,1.352-5.651A11.583,11.583,0,0,0-235.878,238.094Zm-6.471,9.482a4.685,4.685,0,0,1-3.564,1.476,4.821,4.821,0,0,1-2.5-.675,5.07,5.07,0,0,1-1.843-1.885,5.442,5.442,0,0,1-.7-2.763,5.48,5.48,0,0,1,.7-2.746,5.04,5.04,0,0,1,1.843-1.906,4.83,4.83,0,0,1,2.5-.675,4.656,4.656,0,0,1,3.564,1.5,5.4,5.4,0,0,1,1.393,3.837,5.373,5.373,0,0,1-1.391,3.84Z" transform="translate(333.592 -214.777)" fill="#fff"/>
    <path id="Union_12" data-name="Union 12" d="M14.792,28.054a14.707,14.707,0,0,1-3.13-.331c-4.676-1.241-6.747-4.768-7.644-8.056-.072-.265-.134-.516-.2-.766v-.053h0a17.576,17.576,0,0,1-.367-2.377c-.015-.172-.029-.331-.029-.5V12.959H0V8.177H3.421V.04H8.427V8.177h5.6v4.781h-5.6v3.7s.105,5.215,5.364,5.653c.539.043,1.035.061,1.489.06a4.808,4.808,0,0,0,2.4-1.394c.072-.066.148-.119.215-.186a4.474,4.474,0,0,0,1.2-3.222V4.6H12.23V0H25.847V17.58a10.619,10.619,0,0,1-1.388,5.428,9.655,9.655,0,0,1-3.894,3.723A12,12,0,0,1,15.1,28.056C15,28.057,14.9,28.056,14.792,28.054Z" transform="translate(20.862 11.785)" fill="#fff" stroke="rgba(0,0,0,0)" stroke-miterlimit="10" stroke-width="1"/>
    <path id="Path_1735" data-name="Path 1735" d="M-372.071,200.644a4.22,4.22,0,0,1,1.72.347,4.394,4.394,0,0,1,2.3,2.3,4.219,4.219,0,0,1,.347,1.72,4.268,4.268,0,0,1-.347,1.7,4.4,4.4,0,0,1-.931,1.394,4.47,4.47,0,0,1-1.371.931,4.21,4.21,0,0,1-1.72.347,4.257,4.257,0,0,1-1.7-.347,4.272,4.272,0,0,1-2.324-2.324,4.263,4.263,0,0,1-.347-1.7,4.214,4.214,0,0,1,.347-1.72,4.471,4.471,0,0,1,.93-1.372,4.4,4.4,0,0,1,1.394-.93A4.27,4.27,0,0,1-372.071,200.644Z" transform="translate(414.41 -200.644)" fill="#fff"/>
  </g>
  <path id="Path_1762" data-name="Path 1762" d="M-1.182,8.129A12.124,12.124,0,0,1-4.9,7.6,11.088,11.088,0,0,1-7.775,6.23,8.843,8.843,0,0,1-9.81,4.352a7.952,7.952,0,0,1-1.2-2.094L-5.369.029A4.192,4.192,0,0,0-3.647,2.24a4.625,4.625,0,0,0,2.465.724,4.526,4.526,0,0,0,3.423-1.37A5.436,5.436,0,0,0,3.551-2.319V-3.375H3.164A6.377,6.377,0,0,1-2.318-.949a8.205,8.205,0,0,1-3.247-.689A9.31,9.31,0,0,1-8.46-3.59,9.555,9.555,0,0,1-10.533-6.7a10.5,10.5,0,0,1-.787-4.147A10.5,10.5,0,0,1-10.533-15a9.555,9.555,0,0,1,2.073-3.11,9.31,9.31,0,0,1,2.895-1.956,8.205,8.205,0,0,1,3.247-.689,6.377,6.377,0,0,1,5.482,2.429h.394v-1.8H9.186V-2.6a12.48,12.48,0,0,1-.724,4.329,9.791,9.791,0,0,1-2.073,3.4A9.229,9.229,0,0,1,3.12,7.342,11.3,11.3,0,0,1-1.182,8.129Zm.234-14.4a4.7,4.7,0,0,0,1.624-.3,4.536,4.536,0,0,0,1.447-.861A4.162,4.162,0,0,0,3.164-8.852a4.779,4.779,0,0,0,.394-2,4.779,4.779,0,0,0-.394-2,4.162,4.162,0,0,0-1.037-1.428,4.536,4.536,0,0,0-1.451-.861,4.693,4.693,0,0,0-1.624-.3,4.694,4.694,0,0,0-1.624.3,4.536,4.536,0,0,0-1.447.861,4.162,4.162,0,0,0-1.037,1.428,4.779,4.779,0,0,0-.394,2,4.779,4.779,0,0,0,.394,2A4.162,4.162,0,0,0-4.019-7.425a4.536,4.536,0,0,0,1.447.861A4.694,4.694,0,0,0-.948-6.27Z" transform="translate(11.321 38.541)" fill="#fff"/>
</svg>
