<svg xmlns="http://www.w3.org/2000/svg" xmlns:xlink="http://www.w3.org/1999/xlink" width="81" height="81" viewBox="0 0 81 81">
  <defs>
    <filter id="Ellipse_39" x="0" y="0" width="81" height="81" filterUnits="userSpaceOnUse">
      <feOffset dy="3" input="SourceAlpha"/>
      <feGaussianBlur stdDeviation="3" result="blur"/>
      <feFlood flood-opacity="0.161"/>
      <feComposite operator="in" in2="blur"/>
      <feComposite in="SourceGraphic"/>
    </filter>
  </defs>
  <g id="Group_965" data-name="Group 965" transform="translate(-102 -450)">
    <g transform="matrix(1, 0, 0, 1, 102, 450)" filter="url(#Ellipse_39)">
      <circle id="Ellipse_39-2" data-name="Ellipse 39" cx="31.5" cy="31.5" r="31.5" transform="translate(9 6)" fill="#fff"/>
    </g>
    <g id="Group_79" data-name="Group 79" transform="translate(-507.079 359.849)">
      <path id="Path_60" data-name="Path 60" d="M660.38,145.309h-21.6c-.093-.033-.184-.072-.279-.1a4.429,4.429,0,0,1-3.176-3.021c-.108-.326-.157-.672-.233-1.009v-26.97a2.763,2.763,0,0,0,.081-.335A4.4,4.4,0,0,1,639.463,110q6.626-.025,13.251.012a1.648,1.648,0,0,1,1.027.468c3.3,3.262,6.568,6.549,9.848,9.828a1.528,1.528,0,0,1,.476,1.133q-.01,2.919-.009,5.839,0,6.717,0,13.434a4.224,4.224,0,0,1-1.77,3.675A12.38,12.38,0,0,1,660.38,145.309ZM651.4,112.661a2.118,2.118,0,0,0-.226-.03c-3.818,0-7.636-.012-11.454.005a1.787,1.787,0,0,0-1.923,2q0,13.019,0,26.037a1.777,1.777,0,0,0,2,2H659.32a1.805,1.805,0,0,0,2.062-2.07q0-8.738,0-17.475c0-.154-.014-.307-.023-.485-1.9,0-3.76,0-5.615,0a4.356,4.356,0,0,1-4.132-3.083,6.2,6.2,0,0,1-.2-1.6C651.382,116.208,651.4,114.453,651.4,112.661Zm2.654,1.953c0,1.2,0,2.352,0,3.505a1.775,1.775,0,0,0,1.9,1.889c1.053.005,2.106,0,3.158,0a3.015,3.015,0,0,0,.308-.03Z" transform="translate(0 0)" fill="#0a53a7"/>
      <path id="Path_61" data-name="Path 61" d="M707.839,288.181c.167-.991.32-1.986.5-2.976.232-1.251.242-1.249-.663-2.126q-.993-.962-1.984-1.926a1.355,1.355,0,0,1,.8-2.427c1.2-.158,2.4-.333,3.593-.535a.808.808,0,0,0,.5-.38c.572-1.1,1.1-2.225,1.664-3.33a1.278,1.278,0,0,1,1.859-.645,1.975,1.975,0,0,1,.644.744c.56,1.074,1.069,2.176,1.628,3.251a.807.807,0,0,0,.518.363c1.238.2,2.483.36,3.723.552a1.306,1.306,0,0,1,1.1.89,1.327,1.327,0,0,1-.41,1.471c-.844.832-1.686,1.666-2.554,2.473a.811.811,0,0,0-.282.837c.211,1.118.393,2.242.593,3.362a1.367,1.367,0,0,1-2.048,1.6c-1.058-.56-2.121-1.11-3.174-1.678a.663.663,0,0,0-.717-.01q-1.613.884-3.251,1.72a1.311,1.311,0,0,1-1.961-.712A3.4,3.4,0,0,1,707.839,288.181Zm5.645-10.193c-.29.587-.564,1.056-.759,1.555a1.8,1.8,0,0,1-1.743,1.218c-.515.032-1.025.148-1.6.236.48.481.88.927,1.327,1.319a1.658,1.658,0,0,1,.533,1.737c-.122.582-.2,1.172-.307,1.811.614-.322,1.187-.609,1.746-.921a1.532,1.532,0,0,1,1.616,0c.554.313,1.127.594,1.748.918-.1-.641-.16-1.224-.3-1.786a1.7,1.7,0,0,1,.6-1.836c.421-.369.794-.793,1.247-1.252-.624-.088-1.165-.19-1.711-.236a1.747,1.747,0,0,1-1.607-1.149C714.058,279.081,713.78,278.586,713.484,277.988Z" transform="translate(-63.898 -149.237)" fill="#0a53a7"/>
    </g>
  </g>
</svg>
