<svg xmlns="http://www.w3.org/2000/svg" xmlns:xlink="http://www.w3.org/1999/xlink" width="81" height="81" viewBox="0 0 81 81">
  <defs>
    <filter id="Ellipse_38" x="0" y="0" width="81" height="81" filterUnits="userSpaceOnUse">
      <feOffset dy="3" input="SourceAlpha"/>
      <feGaussianBlur stdDeviation="3" result="blur"/>
      <feFlood flood-opacity="0.161"/>
      <feComposite operator="in" in2="blur"/>
      <feComposite in="SourceGraphic"/>
    </filter>
  </defs>
  <g id="Group_155" data-name="Group 155" transform="translate(9 6)">
    <g transform="matrix(1, 0, 0, 1, -9, -6)" filter="url(#Ellipse_38)">
      <circle id="Ellipse_38-2" data-name="Ellipse 38" cx="31.5" cy="31.5" r="31.5" transform="translate(9 6)" fill="#fff"/>
    </g>
  </g>
  <g id="Group_1219" data-name="Group 1219" transform="translate(27.042 27)">
    <path id="Path_58" data-name="Path 58" d="M1090.679,279.751q-3.346,0-6.692,0c-.892,0-1.177.246-1.172,1.125.023,3.471-.143,6.946.085,10.412a11.122,11.122,0,0,0,2.44,6.127,32.662,32.662,0,0,0,2.987,3.408,1.708,1.708,0,0,1,.588,1.334c-.018.62.034,1.241.032,1.861a1.549,1.549,0,0,0,.863,1.531,1.814,1.814,0,0,0,1.781-.121,2.143,2.143,0,0,0,.848-.934,7.168,7.168,0,0,0,.365-5.218,20.732,20.732,0,0,0-1.231-3.073c-.31-.65-.252-.782.468-.783,2.017,0,4.034.007,6.052.014,1.312,0,2-.424,2.3-1.431a2.4,2.4,0,0,0-1.1-2.845c-.438-.269-.074-.352.078-.464a2.179,2.179,0,0,0,1.086-1.875,1.669,1.669,0,0,0-1.275-1.791c-.327-.122-.417-.192-.091-.47a1.889,1.889,0,0,0-.284-3.287c-.224-.134-.279-.22-.08-.424a1.846,1.846,0,0,0,.327-2.16,1.714,1.714,0,0,0-1.805-.9c-2.192.012-4.383,0-6.575,0Z" transform="translate(-1073.596 -277.728)" fill="#f0b940"/>
    <path id="Path_59" data-name="Path 59" d="M1004.144,408.9a1.121,1.121,0,0,0,1.2.712c1.648-.026,3.3-.006,4.945-.01.838,0,1.116-.279,1.117-1.123q.006-6.138,0-12.276c0-.853-.266-1.114-1.111-1.115-1.668,0-3.336.014-5-.01a1.082,1.082,0,0,0-1.1.581c-.009.29-.024.58-.025.87Q1004.152,402.709,1004.144,408.9Z" transform="translate(-1004.144 -395.072)" fill="#f0b940"/>
  </g>
</svg>
