<svg id="Group_73" data-name="Group 73" xmlns="http://www.w3.org/2000/svg" width="280.582" height="86.877" viewBox="0 0 280.582 86.877">
  <path id="Path_104" data-name="Path 104" d="M10.27,0H270.312a10.27,10.27,0,0,1,10.27,10.27V76.607a10.27,10.27,0,0,1-10.27,10.27H10.27A10.27,10.27,0,0,1,0,76.607V10.27A10.27,10.27,0,0,1,10.27,0Z" fill="#030504"/>
  <g id="Group_20" data-name="Group 20" transform="translate(25.344 15.342)">
    <g id="Group_10" data-name="Group 10" transform="translate(0 0)">
      <g id="Group_8" data-name="Group 8" transform="translate(0 12.963)">
        <path id="Path_41" data-name="Path 41" d="M641.591,348.833c-.063-6.789,5.559-10.093,5.816-10.245a12.5,12.5,0,0,0-9.851-5.328c-4.143-.435-8.163,2.484-10.271,2.484-2.152,0-5.41-2.439-8.908-2.369a13.126,13.126,0,0,0-11.04,6.734c-4.771,8.264-1.213,20.408,3.359,27.092,2.289,3.271,4.962,6.925,8.461,6.794,3.422-.143,4.7-2.181,8.832-2.181,4.1,0,5.3,2.181,8.865,2.1,3.674-.06,5.985-3.287,8.191-6.589a26.939,26.939,0,0,0,3.75-7.632,11.8,11.8,0,0,1-7.2-10.858" transform="translate(-605.071 -333.215)" fill="#fff"/>
      </g>
      <g id="Group_9" data-name="Group 9" transform="translate(21.726)">
        <path id="Path_42" data-name="Path 42" d="M636.258,328.026a12,12,0,0,0,2.749-8.614,12.222,12.222,0,0,0-7.912,4.1,11.431,11.431,0,0,0-2.826,8.3c3,.223,6.067-1.511,7.989-3.777" transform="translate(-628.207 -319.412)" fill="#fff"/>
      </g>
    </g>
    <g id="Group_19" data-name="Group 19" transform="translate(62.4 24.833)">
      <g id="Group_11" data-name="Group 11" transform="translate(0 0.418)">
        <path id="Path_43" data-name="Path 43" d="M695.113,374.252h-4.768l-2.614-8.213h-9.079l-2.49,8.213h-4.644l9-27.952h5.553Zm-8.167-11.658-2.362-7.3q-.378-1.114-1.411-5.264h-.083q-.417,1.786-1.33,5.264l-2.322,7.3Z" transform="translate(-671.519 -346.3)" fill="#fff"/>
      </g>
      <g id="Group_12" data-name="Group 12" transform="translate(27.329 7.797)">
        <path id="Path_44" data-name="Path 44" d="M720.029,364.4a11.461,11.461,0,0,1-2.78,8.129,8.122,8.122,0,0,1-6.176,2.653q-3.984,0-5.726-2.861h-.079v10.615h-4.482v-21.73q0-3.233-.165-6.635h3.939l.25,3.194h.086a7.964,7.964,0,0,1,12.75-.788,11.129,11.129,0,0,1,2.384,7.423m-4.562.164a8.313,8.313,0,0,0-1.327-4.852,4.588,4.588,0,0,0-3.9-1.992,4.65,4.65,0,0,0-3.007,1.1,5.105,5.105,0,0,0-1.763,2.886,5.774,5.774,0,0,0-.206,1.364v3.362a5.379,5.379,0,0,0,1.342,3.709,4.468,4.468,0,0,0,3.507,1.514,4.572,4.572,0,0,0,3.939-1.947,8.561,8.561,0,0,0,1.411-5.144" transform="translate(-700.621 -354.156)" fill="#fff"/>
      </g>
      <g id="Group_13" data-name="Group 13" transform="translate(50.513 7.797)">
        <path id="Path_45" data-name="Path 45" d="M744.712,364.4a11.462,11.462,0,0,1-2.78,8.129,8.117,8.117,0,0,1-6.178,2.653q-3.979,0-5.72-2.861h-.083v10.615h-4.478v-21.73q0-3.233-.164-6.635h3.936l.252,3.194h.085a7.963,7.963,0,0,1,12.749-.788,11.114,11.114,0,0,1,2.381,7.423m-4.558.164a8.3,8.3,0,0,0-1.33-4.852,4.586,4.586,0,0,0-3.9-1.992,4.656,4.656,0,0,0-3.008,1.1,5.1,5.1,0,0,0-1.759,2.886,5.661,5.661,0,0,0-.209,1.364v3.362a5.364,5.364,0,0,0,1.346,3.709,4.454,4.454,0,0,0,3.507,1.514,4.576,4.576,0,0,0,3.939-1.947,8.614,8.614,0,0,0,1.411-5.144" transform="translate(-725.309 -354.156)" fill="#fff"/>
      </g>
      <g id="Group_14" data-name="Group 14" transform="translate(78.494 0)">
        <path id="Path_46" data-name="Path 46" d="M772.448,366.385a7.439,7.439,0,0,1-2.485,5.807q-2.73,2.449-7.611,2.445A13.365,13.365,0,0,1,755.1,372.9l1.039-3.733a12.274,12.274,0,0,0,6.476,1.781,6.123,6.123,0,0,0,3.943-1.139,3.736,3.736,0,0,0,1.407-3.054,3.9,3.9,0,0,0-1.159-2.865,10.8,10.8,0,0,0-3.861-2.161q-7.342-2.744-7.337-8.018a7.087,7.087,0,0,1,2.57-5.647,10.155,10.155,0,0,1,6.843-2.206,13.536,13.536,0,0,1,6.343,1.329l-1.117,3.649a11.045,11.045,0,0,0-5.353-1.285,5.41,5.41,0,0,0-3.688,1.161,3.329,3.329,0,0,0-1.117,2.53,3.4,3.4,0,0,0,1.283,2.734,14.4,14.4,0,0,0,4.065,2.16,13.78,13.78,0,0,1,5.308,3.4,7.128,7.128,0,0,1,1.7,4.852" transform="translate(-755.105 -345.856)" fill="#fff"/>
      </g>
      <g id="Group_15" data-name="Group 15" transform="translate(98.366 3.192)">
        <path id="Path_47" data-name="Path 47" d="M788.543,357.633h-4.935v9.787q0,3.733,2.615,3.732a8.107,8.107,0,0,0,1.987-.206l.123,3.4a10.087,10.087,0,0,1-3.481.5,5.368,5.368,0,0,1-4.147-1.613q-1.492-1.62-1.493-5.434V357.633h-2.945v-3.361h2.945v-3.688l4.4-1.33v5.017h4.935Z" transform="translate(-776.268 -349.254)" fill="#fff"/>
      </g>
      <g id="Group_16" data-name="Group 16" transform="translate(113.173 7.798)">
        <path id="Path_48" data-name="Path 48" d="M811.774,364.484a11.059,11.059,0,0,1-2.653,7.632,9.467,9.467,0,0,1-7.381,3.067,9.01,9.01,0,0,1-7.071-2.945,10.71,10.71,0,0,1-2.634-7.419,10.948,10.948,0,0,1,2.717-7.672,9.378,9.378,0,0,1,7.317-2.989A9.218,9.218,0,0,1,809.2,357.1a10.611,10.611,0,0,1,2.571,7.381m-4.646.145a9.07,9.07,0,0,0-1.2-4.782,4.416,4.416,0,0,0-4.019-2.413,4.484,4.484,0,0,0-4.106,2.413,9.253,9.253,0,0,0-1.2,4.868,9.066,9.066,0,0,0,1.2,4.78,4.518,4.518,0,0,0,4.068,2.412,4.467,4.467,0,0,0,4.016-2.453,9.069,9.069,0,0,0,1.244-4.825" transform="translate(-792.034 -354.158)" fill="#fff"/>
      </g>
      <g id="Group_17" data-name="Group 17" transform="translate(136.686 7.797)">
        <path id="Path_49" data-name="Path 49" d="M827.853,358.51a8.007,8.007,0,0,0-1.409-.123,4.246,4.246,0,0,0-3.653,1.785,6.731,6.731,0,0,0-1.118,3.979v10.575H817.2l.037-13.806q0-3.485-.164-6.347h3.9l.164,3.859h.12a6.9,6.9,0,0,1,2.242-3.194,5.422,5.422,0,0,1,3.238-1.08,7.266,7.266,0,0,1,1.117.08Z" transform="translate(-817.072 -354.157)" fill="#fff"/>
      </g>
      <g id="Group_18" data-name="Group 18" transform="translate(149.581 7.759)">
        <path id="Path_50" data-name="Path 50" d="M848.717,363.7a10.892,10.892,0,0,1-.161,2.033H835.122a5.854,5.854,0,0,0,1.947,4.566,6.649,6.649,0,0,0,4.4,1.4,14.894,14.894,0,0,0,5.432-.951l.7,3.111a16.891,16.891,0,0,1-6.762,1.247,9.776,9.776,0,0,1-7.359-2.762,10.207,10.207,0,0,1-2.674-7.4,11.562,11.562,0,0,1,2.491-7.591,8.565,8.565,0,0,1,7.046-3.231,7.523,7.523,0,0,1,6.6,3.231,10.916,10.916,0,0,1,1.776,6.346m-4.27-1.162a6.07,6.07,0,0,0-.867-3.441,3.92,3.92,0,0,0-3.571-1.867,4.259,4.259,0,0,0-3.564,1.826,6.628,6.628,0,0,0-1.323,3.481Z" transform="translate(-830.804 -354.119)" fill="#fff"/>
      </g>
    </g>
  </g>
  <path id="Path_102" data-name="Path 102" d="M3.846-2.728V-14.694H7.3a6.322,6.322,0,0,1,2.4.4,3.89,3.89,0,0,1,1.588,1.165,4.742,4.742,0,0,1,.885,1.858,10.323,10.323,0,0,1,.27,2.473,8.8,8.8,0,0,1-.292,2.43,5.92,5.92,0,0,1-.745,1.674A3.9,3.9,0,0,1,10.38-3.636a5.034,5.034,0,0,1-1.156.594,4.846,4.846,0,0,1-1.1.259,8.606,8.606,0,0,1-.864.054ZM1.794-16.422V-1H7.086a9.258,9.258,0,0,0,3.326-.54,5.8,5.8,0,0,0,2.31-1.566,6.439,6.439,0,0,0,1.339-2.527,12.483,12.483,0,0,0,.432-3.445q0-3.716-1.921-5.529a7.691,7.691,0,0,0-5.487-1.814ZM18.036-6.573a5.556,5.556,0,0,1,.27-1.8A3.892,3.892,0,0,1,19.052-9.7a3.173,3.173,0,0,1,1.112-.822,3.385,3.385,0,0,1,2.7,0,3.173,3.173,0,0,1,1.112.822,3.892,3.892,0,0,1,.743,1.329,5.555,5.555,0,0,1,.27,1.8,5.555,5.555,0,0,1-.27,1.8,3.773,3.773,0,0,1-.745,1.317,3.234,3.234,0,0,1-1.112.81,3.385,3.385,0,0,1-2.7,0,3.234,3.234,0,0,1-1.111-.81,3.773,3.773,0,0,1-.745-1.317,5.556,5.556,0,0,1-.27-1.8Zm-1.944,0a7.337,7.337,0,0,0,.346,2.29,5.227,5.227,0,0,0,1.037,1.847,4.769,4.769,0,0,0,1.706,1.231,5.786,5.786,0,0,0,2.333.443,5.767,5.767,0,0,0,2.342-.443,4.792,4.792,0,0,0,1.7-1.231,5.227,5.227,0,0,0,1.037-1.847,7.337,7.337,0,0,0,.346-2.29,7.437,7.437,0,0,0-.346-2.3,5.212,5.212,0,0,0-1.037-1.858,4.908,4.908,0,0,0-1.7-1.242,5.647,5.647,0,0,0-2.343-.453,5.666,5.666,0,0,0-2.333.453,4.884,4.884,0,0,0-1.706,1.242,5.212,5.212,0,0,0-1.037,1.858,7.437,7.437,0,0,0-.346,2.3ZM40.154-1l3.564-11.167h-1.9L39.312-3.03h-.045l-2.332-9.136H34.927L32.68-3.031h-.043L30.11-12.167H28.08L31.665-1h1.987L35.9-9.877h.043L38.208-1Zm5.313-11.167V-1H47.3V-7.307A4.524,4.524,0,0,1,47.508-8.7a3.164,3.164,0,0,1,.616-1.112,2.734,2.734,0,0,1,1.026-.734,3.742,3.742,0,0,1,1.458-.259,2.247,2.247,0,0,1,1.663.6,2.218,2.218,0,0,1,.6,1.642V-1h1.836V-8.344A6.91,6.91,0,0,0,54.528-10a3.129,3.129,0,0,0-.637-1.286,3.018,3.018,0,0,0-1.188-.842,4.846,4.846,0,0,0-1.836-.3,3.866,3.866,0,0,0-3.629,2.03h-.043v-1.77Zm12.117-4.255V-1h1.836V-16.422ZM63.61-6.573a5.556,5.556,0,0,1,.27-1.8A3.892,3.892,0,0,1,64.625-9.7a3.173,3.173,0,0,1,1.112-.822,3.385,3.385,0,0,1,2.7,0,3.173,3.173,0,0,1,1.112.821,3.892,3.892,0,0,1,.745,1.328,5.555,5.555,0,0,1,.27,1.8,5.555,5.555,0,0,1-.27,1.8,3.773,3.773,0,0,1-.745,1.317,3.234,3.234,0,0,1-1.112.81,3.385,3.385,0,0,1-2.7,0,3.234,3.234,0,0,1-1.112-.81,3.773,3.773,0,0,1-.745-1.317,5.555,5.555,0,0,1-.27-1.8Zm-1.944,0a7.337,7.337,0,0,0,.346,2.29,5.227,5.227,0,0,0,1.037,1.847,4.769,4.769,0,0,0,1.706,1.231,6.394,6.394,0,0,0,4.676,0,4.792,4.792,0,0,0,1.7-1.231,5.227,5.227,0,0,0,1.037-1.847,7.337,7.337,0,0,0,.346-2.29,7.437,7.437,0,0,0-.346-2.3,5.212,5.212,0,0,0-1.037-1.858,4.908,4.908,0,0,0-1.7-1.242,6.253,6.253,0,0,0-4.676,0,4.884,4.884,0,0,0-1.706,1.242,5.212,5.212,0,0,0-1.037,1.858,7.438,7.438,0,0,0-.346,2.3ZM84.561-1.044a2.6,2.6,0,0,1-1.317.281,1.58,1.58,0,0,1-1.134-.4,1.737,1.737,0,0,1-.421-1.307,4.392,4.392,0,0,1-1.76,1.307,6.08,6.08,0,0,1-3.607.227,3.34,3.34,0,0,1-1.177-.54,2.591,2.591,0,0,1-.787-.961,3.234,3.234,0,0,1-.292-1.436,3.28,3.28,0,0,1,.324-1.555,2.827,2.827,0,0,1,.853-.983,3.909,3.909,0,0,1,1.209-.572q.68-.194,1.393-.324.756-.151,1.436-.227a8,8,0,0,0,1.2-.216,2,2,0,0,0,.821-.409,1,1,0,0,0,.3-.787,1.832,1.832,0,0,0-.227-.972,1.555,1.555,0,0,0-.583-.561,2.371,2.371,0,0,0-.8-.259,6.036,6.036,0,0,0-.875-.065,3.883,3.883,0,0,0-1.944.443,1.88,1.88,0,0,0-.842,1.674H74.5a3.965,3.965,0,0,1,.432-1.75,3.275,3.275,0,0,1,1.037-1.156,4.349,4.349,0,0,1,1.48-.637,7.814,7.814,0,0,1,1.782-.194,10.462,10.462,0,0,1,1.5.108,3.923,3.923,0,0,1,1.348.442,2.588,2.588,0,0,1,.97.937,3.007,3.007,0,0,1,.367,1.577v5.745a4.3,4.3,0,0,0,.076.95q.076.3.508.3a1.818,1.818,0,0,0,.561-.108ZM81.58-6.767a2.285,2.285,0,0,1-.907.378q-.561.119-1.177.194t-1.242.173a4.566,4.566,0,0,0-1.123.313,2.043,2.043,0,0,0-.81.616A1.724,1.724,0,0,0,76.007-4a1.493,1.493,0,0,0,.184.767,1.53,1.53,0,0,0,.475.508,1.994,1.994,0,0,0,.68.281,3.775,3.775,0,0,0,.821.086,4.349,4.349,0,0,0,1.555-.248,3.271,3.271,0,0,0,1.058-.626,2.471,2.471,0,0,0,.6-.821,2.076,2.076,0,0,0,.194-.832Zm6.026.281a7.346,7.346,0,0,1,.173-1.6,4.229,4.229,0,0,1,.561-1.382,2.924,2.924,0,0,1,1.037-.972,3.153,3.153,0,0,1,1.577-.367,3.408,3.408,0,0,1,1.62.356,3.144,3.144,0,0,1,1.091.94,3.929,3.929,0,0,1,.616,1.35,6.539,6.539,0,0,1,.011,3.121,4.019,4.019,0,0,1-.594,1.35,3.03,3.03,0,0,1-2.635,1.328,3.279,3.279,0,0,1-1.543-.346,3.07,3.07,0,0,1-1.08-.929,4.11,4.11,0,0,1-.626-1.328,5.71,5.71,0,0,1-.206-1.522ZM96.245-1V-16.422H94.41v5.745h-.043a2.957,2.957,0,0,0-.745-.832,4.233,4.233,0,0,0-.94-.54,4.716,4.716,0,0,0-.993-.292,5.438,5.438,0,0,0-.929-.086,5.083,5.083,0,0,0-2.236.464,4.589,4.589,0,0,0-1.6,1.253,5.29,5.29,0,0,0-.95,1.847,7.878,7.878,0,0,0-.313,2.246,7.633,7.633,0,0,0,.324,2.246,5.553,5.553,0,0,0,.961,1.858,4.645,4.645,0,0,0,1.6,1.274A5.038,5.038,0,0,0,90.8-.762a5.442,5.442,0,0,0,2.138-.409,2.7,2.7,0,0,0,1.425-1.339h.043V-1Zm10.173-5.573a5.555,5.555,0,0,1,.27-1.8,3.892,3.892,0,0,1,.746-1.328,3.173,3.173,0,0,1,1.112-.822,3.385,3.385,0,0,1,2.7,0,3.173,3.173,0,0,1,1.112.821,3.892,3.892,0,0,1,.745,1.328,5.555,5.555,0,0,1,.27,1.8,5.555,5.555,0,0,1-.27,1.8,3.773,3.773,0,0,1-.745,1.317,3.233,3.233,0,0,1-1.112.81,3.385,3.385,0,0,1-2.7,0,3.234,3.234,0,0,1-1.113-.81,3.773,3.773,0,0,1-.745-1.317,5.556,5.556,0,0,1-.27-1.8Zm-1.944,0a7.337,7.337,0,0,0,.346,2.29,5.227,5.227,0,0,0,1.037,1.847,4.769,4.769,0,0,0,1.706,1.231,6.394,6.394,0,0,0,4.676,0,4.792,4.792,0,0,0,1.7-1.231,5.227,5.227,0,0,0,1.037-1.847,7.335,7.335,0,0,0,.346-2.29,7.437,7.437,0,0,0-.346-2.3,5.212,5.212,0,0,0-1.037-1.858,4.909,4.909,0,0,0-1.7-1.242,6.253,6.253,0,0,0-4.676,0,4.884,4.884,0,0,0-1.706,1.242,5.212,5.212,0,0,0-1.037,1.858,7.437,7.437,0,0,0-.346,2.3Zm13-5.593V-1h1.836V-7.307a4.524,4.524,0,0,1,.205-1.393,3.164,3.164,0,0,1,.616-1.113,2.733,2.733,0,0,1,1.026-.734,3.742,3.742,0,0,1,1.458-.259,2.247,2.247,0,0,1,1.663.6,2.218,2.218,0,0,1,.6,1.642V-1h1.836V-8.344A6.911,6.911,0,0,0,126.537-10a3.129,3.129,0,0,0-.636-1.286,3.019,3.019,0,0,0-1.188-.842,4.846,4.846,0,0,0-1.836-.3,3.866,3.866,0,0,0-3.629,2.03h-.043v-1.77Zm20.562,0v-3.348H136.2v3.348h-1.9v1.62h1.9v7.105a4.243,4.243,0,0,0,.151,1.253,1.523,1.523,0,0,0,.464.734,1.792,1.792,0,0,0,.821.356,6.592,6.592,0,0,0,1.22.1h1.4V-2.62h-.842a6.122,6.122,0,0,1-.7-.031.907.907,0,0,1-.421-.14.535.535,0,0,1-.205-.3,2,2,0,0,1-.054-.518v-6.934h2.225v-1.62Zm4.255-4.255V-1h1.836V-7.307a4.524,4.524,0,0,1,.2-1.393,3.164,3.164,0,0,1,.616-1.112,2.734,2.734,0,0,1,1.026-.734,3.742,3.742,0,0,1,1.458-.259,2.247,2.247,0,0,1,1.665.6,2.218,2.218,0,0,1,.6,1.641V-1h1.836V-8.344A6.91,6.91,0,0,0,151.357-10a3.129,3.129,0,0,0-.639-1.286,3.019,3.019,0,0,0-1.188-.842,4.846,4.846,0,0,0-1.836-.3,5.127,5.127,0,0,0-1.026.108,4.537,4.537,0,0,0-1.015.335,3.437,3.437,0,0,0-.875.583,2.442,2.442,0,0,0-.6.874h-.043v-5.9Zm19.763,8.769h-6.415a3.824,3.824,0,0,1,.281-1.22,3.255,3.255,0,0,1,.648-1,2.968,2.968,0,0,1,.982-.681,3.2,3.2,0,0,1,1.285-.248,3.141,3.141,0,0,1,1.264.248,3.18,3.18,0,0,1,.994.67,3.147,3.147,0,0,1,.669,1,3.756,3.756,0,0,1,.291,1.231Zm1.771,3.11h-1.814a2.611,2.611,0,0,1-.983,1.642,3.178,3.178,0,0,1-1.911.54,3.8,3.8,0,0,1-1.577-.3,3.09,3.09,0,0,1-1.1-.81,3.155,3.155,0,0,1-.626-1.165,4.433,4.433,0,0,1-.173-1.393H164a8.89,8.89,0,0,0-.184-2.138A6.19,6.19,0,0,0,163-10.243a4.891,4.891,0,0,0-1.577-1.566,4.581,4.581,0,0,0-2.473-.616,5.078,5.078,0,0,0-2.106.432,4.949,4.949,0,0,0-1.664,1.208,5.574,5.574,0,0,0-1.091,1.836,6.72,6.72,0,0,0-.389,2.333,8.948,8.948,0,0,0,.378,2.354,5.138,5.138,0,0,0,1,1.858,4.577,4.577,0,0,0,1.652,1.209,5.736,5.736,0,0,0,2.322.432,5.07,5.07,0,0,0,3.154-.95,4.462,4.462,0,0,0,1.621-2.831Z" transform="translate(90.903 33.798)" fill="#fff"/>
</svg>
