<svg id="Group_149" data-name="Group 149" xmlns="http://www.w3.org/2000/svg" xmlns:xlink="http://www.w3.org/1999/xlink" width="280.582" height="86.877" viewBox="0 0 280.582 86.877">
  <defs>
    <linearGradient id="linear-gradient" x1="0.807" y1="0.5" x2="-1.573" y2="0.5" gradientUnits="objectBoundingBox">
      <stop offset="0" stop-color="gold"/>
      <stop offset="0.075" stop-color="#fece00"/>
      <stop offset="0.48" stop-color="#fca704"/>
      <stop offset="0.803" stop-color="#fa8e07"/>
      <stop offset="1" stop-color="#fa8608"/>
    </linearGradient>
    <linearGradient id="linear-gradient-2" x1="0.862" y1="0.178" x2="-0.501" y2="1.948" gradientUnits="objectBoundingBox">
      <stop offset="0" stop-color="#e82b36"/>
      <stop offset="1" stop-color="#b4005a"/>
    </linearGradient>
    <linearGradient id="linear-gradient-3" x1="-0.508" y1="-0.956" x2="0.606" y2="0.489" gradientUnits="objectBoundingBox">
      <stop offset="0" stop-color="#2f8e5b"/>
      <stop offset="0.39" stop-color="#4ea157"/>
      <stop offset="0.768" stop-color="#67b054"/>
      <stop offset="1" stop-color="#70b653"/>
    </linearGradient>
  </defs>
  <g id="Group_74" data-name="Group 74">
    <g id="Group_72" data-name="Group 72">
      <g id="Group_71" data-name="Group 71">
        <path id="Path_103" data-name="Path 103" d="M10.27,0H270.313a10.27,10.27,0,0,1,10.27,10.27V76.607a10.27,10.27,0,0,1-10.27,10.27H10.27A10.27,10.27,0,0,1,0,76.607V10.27A10.27,10.27,0,0,1,10.27,0Z" fill="#030504"/>
        <path id="Path_24" data-name="Path 24" d="M727.1,242.144a8.92,8.92,0,1,0,8.953,8.919A8.791,8.791,0,0,0,727.1,242.144Zm0,14.325a5.419,5.419,0,1,1,5.034-5.405,5.159,5.159,0,0,1-5.034,5.405Zm-19.532-14.325a8.92,8.92,0,1,0,8.953,8.919A8.791,8.791,0,0,0,707.572,242.144Zm0,14.325a5.419,5.419,0,1,1,5.034-5.405,5.16,5.16,0,0,1-5.034,5.405Zm-23.234-11.588v3.784h9.055a7.9,7.9,0,0,1-2.06,4.764,9.271,9.271,0,0,1-6.994,2.771,10.069,10.069,0,0,1,0-20.136,9.65,9.65,0,0,1,6.825,2.7l2.669-2.669a13.2,13.2,0,0,0-9.494-3.817,13.853,13.853,0,1,0,0,27.7A12.662,12.662,0,0,0,694,256.1a12.5,12.5,0,0,0,3.277-8.851,12.341,12.341,0,0,0-.2-2.365Zm95.017,2.939c-.744-1.994-3.007-5.676-7.636-5.676-4.595,0-8.412,3.615-8.412,8.919a8.728,8.728,0,0,0,8.852,8.919,8.872,8.872,0,0,0,7.431-3.953L776.55,254a5.093,5.093,0,0,1-4.391,2.466,4.541,4.541,0,0,1-4.325-2.7l11.927-4.932Zm-12.163,2.973a4.892,4.892,0,0,1,4.663-5.2,3.451,3.451,0,0,1,3.31,1.891Zm-9.7,8.649h3.924V233.225H757.5Zm-6.419-15.3h-.135a6.179,6.179,0,0,0-4.7-1.994,8.928,8.928,0,0,0,0,17.839,6.081,6.081,0,0,0,4.7-2.028h.135v1.283c0,3.413-1.825,5.237-4.764,5.237a4.936,4.936,0,0,1-4.493-3.176l-3.413,1.419a8.5,8.5,0,0,0,7.906,5.271c4.595,0,8.48-2.7,8.48-9.291V242.685h-3.716Zm-4.493,12.331a5.425,5.425,0,0,1,0-10.811c2.669,0,4.764,2.3,4.764,5.439,0,3.107-2.092,5.37-4.761,5.37Zm51.13-23.243h-9.377v26.217h3.912V249.51h5.464c4.337,0,8.6-3.14,8.6-8.142s-4.261-8.142-8.6-8.142Zm.1,12.635h-5.565v-8.987h5.565a4.494,4.494,0,1,1,0,8.988ZM822,242.1c-2.834,0-5.768,1.248-6.982,4.014l3.474,1.448a3.709,3.709,0,0,1,3.575-1.921c2.024,0,4.081,1.214,4.115,3.372v.271a8.659,8.659,0,0,0-4.081-1.012c-3.744,0-7.555,2.057-7.555,5.9,0,3.508,3.069,5.767,6.509,5.767a5.521,5.521,0,0,0,4.992-2.563h.135V259.4h3.777V249.348c0-4.656-3.472-7.252-7.958-7.252Zm-.472,14.368c-1.282,0-3.069-.64-3.069-2.227,0-2.023,2.226-2.8,4.149-2.8a6.981,6.981,0,0,1,3.575.877,4.744,4.744,0,0,1-4.653,4.148Zm22.193-13.8-4.486,11.367H839.1l-4.655-11.367h-4.215l6.981,15.886-3.98,8.837h4.081l10.759-24.723Zm-35.246,16.773h3.912V233.226h-3.912Z" transform="translate(-583.7 -194.79)" fill="#fff"/>
        <g id="Group_5" data-name="Group 5" transform="translate(21.43 16.733)">
          <path id="Path_25" data-name="Path 25" d="M601.873,211.052A4.193,4.193,0,0,0,600.9,214v46.34a4.19,4.19,0,0,0,.97,2.944l.154.151,25.96-25.96v-.612l-25.96-25.96Z" transform="translate(-600.903 -210.22)" fill="#40bff2"/>
          <path id="Path_26" data-name="Path 26" d="M638.4,247.255l-8.652-8.657v-.612l8.655-8.656.2.112,10.253,5.825c2.928,1.664,2.928,4.386,0,6.051l-10.253,5.825Z" transform="translate(-602.66 -211.344)" fill="url(#linear-gradient)"/>
          <path id="Path_27" data-name="Path 27" d="M636.9,247.724l-8.85-8.851-26.114,26.115c.965,1.022,2.559,1.148,4.354.128l30.61-17.393" transform="translate(-600.966 -211.926)" fill="url(#linear-gradient-2)"/>
          <path id="Path_28" data-name="Path 28" d="M636.9,228.276l-30.61-17.393c-1.795-1.02-3.388-.894-4.354.128l26.114,26.115Z" transform="translate(-600.966 -210.178)" fill="url(#linear-gradient-3)"/>
        </g>
        <path id="Path_101" data-name="Path 101" d="M11.862-.8H10.51l-.321-1.42A5.021,5.021,0,0,1,8.5-.888a4.786,4.786,0,0,1-1.944.373,5.692,5.692,0,0,1-2.425-.5A5.336,5.336,0,0,1,2.313-2.374,6.087,6.087,0,0,1,1.171-4.388a7.452,7.452,0,0,1-.4-2.45,7.4,7.4,0,0,1,.4-2.434,6.087,6.087,0,0,1,1.141-2.012,5.431,5.431,0,0,1,1.817-1.369,5.611,5.611,0,0,1,2.425-.507,6.563,6.563,0,0,1,1.868.262A4.989,4.989,0,0,1,10-12.12a4.308,4.308,0,0,1,1.149,1.293,4.534,4.534,0,0,1,.576,1.792H9.665A2.652,2.652,0,0,0,9.3-10.074a2.63,2.63,0,0,0-.7-.753,3.071,3.071,0,0,0-.947-.457,3.921,3.921,0,0,0-1.1-.152,3.383,3.383,0,0,0-1.665.389,3.265,3.265,0,0,0-1.141,1.039A4.69,4.69,0,0,0,3.1-8.528a6.867,6.867,0,0,0,0,3.381,4.69,4.69,0,0,0,.651,1.48A3.265,3.265,0,0,0,4.89-2.628a3.383,3.383,0,0,0,1.665.389A3.936,3.936,0,0,0,7.991-2.45,2.853,2.853,0,0,0,9.048-3.11,2.765,2.765,0,0,0,9.7-4.167a4.462,4.462,0,0,0,.237-1.386H6.724V-7.159h5.139Zm2.3-12.069H22.85v1.826H16.274v3.16h6.085v1.724H16.274v3.533h6.694V-.8H14.161Zm9.5,0h9.77v1.826H29.594V-.8H27.481V-11.047h-3.82Zm15.872,0h2.113V-.8H39.533Zm3.55,0h9.77v1.826H49.016V-.8H46.9V-11.047h-3.82Zm21.011,1.437a3.383,3.383,0,0,0-1.665.389,3.265,3.265,0,0,0-1.141,1.039,4.69,4.69,0,0,0-.651,1.48,6.867,6.867,0,0,0,0,3.381,4.69,4.69,0,0,0,.651,1.48,3.265,3.265,0,0,0,1.141,1.039,3.76,3.76,0,0,0,3.33,0A3.265,3.265,0,0,0,66.9-3.667a4.69,4.69,0,0,0,.651-1.48,6.867,6.867,0,0,0,0-3.381,4.69,4.69,0,0,0-.651-1.48,3.265,3.265,0,0,0-1.141-1.039,3.383,3.383,0,0,0-1.665-.389Zm0-1.724a5.611,5.611,0,0,1,2.425.507,5.431,5.431,0,0,1,1.818,1.369,6.087,6.087,0,0,1,1.141,2.011,7.4,7.4,0,0,1,.4,2.434,7.452,7.452,0,0,1-.4,2.451,6.087,6.087,0,0,1-1.141,2.011A5.336,5.336,0,0,1,66.52-1.015a6.149,6.149,0,0,1-4.851,0,5.336,5.336,0,0,1-1.817-1.361A6.087,6.087,0,0,1,58.71-4.387a7.452,7.452,0,0,1-.4-2.451,7.4,7.4,0,0,1,.4-2.434,6.087,6.087,0,0,1,1.142-2.012,5.431,5.431,0,0,1,1.817-1.369,5.611,5.611,0,0,1,2.426-.507Zm7.623.287h2.231l5.511,8.891h.034v-8.891H81.5V-.8H79.274L73.78-9.678h-.051V-.8H71.718Z" transform="translate(89.088 30.516)" fill="#fff"/>
      </g>
    </g>
  </g>
</svg>
