<svg xmlns="http://www.w3.org/2000/svg" width="20.294" height="17.257" viewBox="0 0 20.294 17.257">
  <g id="Group_6173" data-name="Group 6173" transform="translate(878.121 -779.784)">
    <path id="Path_8742" data-name="Path 8742" d="M-859.871,797.041c-.161-.156-.319-.314-.482-.467l-2.853-2.684a.1.1,0,0,0-.143-.021,9.7,9.7,0,0,1-2.955,1,10.2,10.2,0,0,1-2.4.109,9.743,9.743,0,0,1-2.794-.606,10.351,10.351,0,0,1-2.894-1.674,13.9,13.9,0,0,1-3.7-4.693.221.221,0,0,1,0-.219,14.142,14.142,0,0,1,3.451-4.473c.032-.028.064-.057.1-.091l-2.575-2.423,1.018-1.018,17.249,16.238c-.023.025-.047.051-.071.075l-.869.87c-.023.023-.043.049-.064.073Zm-12.067-11.367a4.482,4.482,0,0,0,.881,5.6,4.521,4.521,0,0,0,5.547.444c-.014-.014-.026-.029-.041-.042l-1.443-1.359a.128.128,0,0,0-.154-.031,2.456,2.456,0,0,1-1.247.115,2.514,2.514,0,0,1-2.021-3.2.115.115,0,0,0-.04-.136c-.23-.214-.458-.429-.687-.645l-.795-.746Z" transform="translate(0 0)" fill="#f2b129"/>
    <path id="Path_8743" data-name="Path 8743" d="M-557.886,837.421c-.125.239-.247.48-.377.717a14.154,14.154,0,0,1-2.631,3.431c-.012.011-.025.021-.042.036l-.589-.547-2.167-2.009a.143.143,0,0,1-.043-.178,4.422,4.422,0,0,0-.853-4.449,4.356,4.356,0,0,0-2.546-1.5,4.331,4.331,0,0,0-2.645.276.131.131,0,0,1-.169-.031q-1.038-.973-2.081-1.941l-.076-.072c.09-.041.171-.079.255-.114a9.71,9.71,0,0,1,2.26-.637,10.21,10.21,0,0,1,2.7-.049,10.057,10.057,0,0,1,5.5,2.439,13.865,13.865,0,0,1,3.484,4.543c.007.015.017.028.025.042Z" transform="translate(-299.941 -49.504)" fill="#f2b129"/>
    <path id="Path_8744" data-name="Path 8744" d="M-368.831,1063.058l-2.594-2.443.011-.024a2.472,2.472,0,0,1,1.608.526A2.463,2.463,0,0,1-368.831,1063.058Z" transform="translate(-496.635 -275.23)" fill="#f2b129"/>
  </g>
</svg>
