<svg xmlns="http://www.w3.org/2000/svg" width="24.018" height="23.999" viewBox="0 0 24.018 23.999">
  <g id="Group_29" data-name="Group 29" transform="translate(0.001 -0.001)">
    <path id="Path_4" data-name="Path 4" d="M-324.545-331.439h-12.378l-.3-.04a6.185,6.185,0,0,1-3.546-1.671,6.113,6.113,0,0,1-1.94-4.269c-.032-.684-.008-1.371-.008-2.056v-8.79a10.446,10.446,0,0,1,.124-2.182,6.183,6.183,0,0,1,1.582-3.041,6.057,6.057,0,0,1,3.133-1.787c.3-.068.615-.11.922-.163h12.446c.253.037.509.06.759.112a6.239,6.239,0,0,1,5.036,6.093c.009.834,0,1.668,0,2.5v8.81a6.446,6.446,0,0,1-.472,2.608,6.14,6.14,0,0,1-4.336,3.7C-323.854-331.528-324.2-331.5-324.545-331.439Zm-6.137-21.942h-5.725a4,4,0,0,0-1.808.382,4.062,4.062,0,0,0-2.436,3.677c-.042,1.01-.008,2.022-.009,3.033,0,2.879-.015,5.759,0,8.638a4.052,4.052,0,0,0,2.007,3.563,4.131,4.131,0,0,0,2.314.618c.982-.009,1.965,0,2.948,0h7.827a6.009,6.009,0,0,0,1.995-.233,4.183,4.183,0,0,0,2.786-3.573c.045-.706.027-1.416.028-2.124v-4.61c0-1.537,0-3.084.005-4.627a5.843,5.843,0,0,0-.232-1.927,4.181,4.181,0,0,0-3.857-2.813c-1.946-.014-3.894,0-5.843,0Z" transform="translate(342.728 355.439)" fill="#fff"/>
    <g id="Group_4" data-name="Group 4" transform="translate(8.163 4.766)">
      <g id="Group_2" data-name="Group 2">
        <path id="Path_4-2" data-name="Path 4" d="M231.278,56.061h-1.27c-.507,0-.714-.205-.719-.7,0-.415-.007-.83,0-1.245a.59.59,0,0,1,.621-.653,6.8,6.8,0,0,1,.98,0c.347.031.435-.108.415-.43-.024-.376,0-.754-.005-1.131a2.967,2.967,0,0,1,2.643-2.808c.776.039,1.557-.033,2.336-.035.463,0,.685.24.691.707.006.39.007.78,0,1.169a.6.6,0,0,1-.65.665c-.138.006-.277,0-.415,0a1.121,1.121,0,0,0-1.288,1.155c-.025.208-.023.42-.037.7h1.492c.746,0,.9.157.9.912v1.018a.6.6,0,0,1-.672.674c-.551.006-1.1,0-1.691,0-.009.192-.022.351-.022.51v6.11c0,.675-.171.843-.847.844h-1.584c-.682,0-.852-.165-.852-.837V56.538C231.3,56.393,231.286,56.246,231.278,56.061Z" transform="translate(-229.284 -49.057)" fill="#fff"/>
      </g>
    </g>
  </g>
</svg>
