<svg xmlns="http://www.w3.org/2000/svg" width="17.042" height="17.042" viewBox="0 0 17.042 17.042">
  <path id="Path_236" data-name="Path 236" d="M201.62,81.368h-6.669a1.627,1.627,0,0,1-1.816-1.827q0-6.7,0-13.406a1.618,1.618,0,0,1,1.8-1.808h13.441a1.621,1.621,0,0,1,1.8,1.81q0,6.7,0,13.406a1.623,1.623,0,0,1-1.819,1.826Zm-6.9-1.585h7.452V74.567h-2V72.256h2.031c0-.683-.007-1.312,0-1.942a2.717,2.717,0,0,1,1.825-2.677,8.807,8.807,0,0,1,2.959-.116V69.6c-.565.026-1.1.032-1.637.083a.7.7,0,0,0-.7.681c-.039.623-.01,1.25-.01,1.917H206.9l-.29,2.308H204.63v5.19h3.956V65.917H194.716Z" transform="translate(-193.134 -64.326)" fill="#435390"/>
</svg>
