<svg xmlns="http://www.w3.org/2000/svg" width="154.664" height="56.3" viewBox="0 0 154.664 56.3">
  <g id="Group_11745" data-name="Group 11745" transform="translate(-173.775 -3675.7)">
    <g id="Group_11741" data-name="Group 11741" transform="translate(95.774 3629.886)">
      <g id="Group_1656" data-name="Group 1656" transform="translate(106.406 45.814)">
        <g id="Group_1636" data-name="Group 1636" transform="translate(119.23 41.446)">
          <g id="Ellipse_88" data-name="Ellipse 88" transform="translate(0 0)">
            <g id="Group_1639" data-name="Group 1639">
              <path id="Path_1723" data-name="Path 1723" d="M-183.988,311.541a3.517,3.517,0,0,1-3.513-3.515,3.518,3.518,0,0,1,3.513-3.515,3.518,3.518,0,0,1,3.515,3.515,3.518,3.518,0,0,1-3.515,3.515Zm0-6.588a3.079,3.079,0,0,0-3.074,3.075,3.079,3.079,0,0,0,3.074,3.076,3.078,3.078,0,0,0,3.075-3.076,3.079,3.079,0,0,0-3.075-3.077Z" transform="translate(187.501 -304.512)" fill="#fff"/>
            </g>
          </g>
          <g id="Path_1712" data-name="Path 1712" transform="translate(2.514 1.865)">
            <path id="Path_1724" data-name="Path 1724" d="M-179.85,310.7a.666.666,0,0,0,.431-.129.425.425,0,0,0,.16-.356V310.2a.422.422,0,0,0-.157-.356.7.7,0,0,0-.439-.119h-.732v.961Zm-1.239-1.424h1.276a1.413,1.413,0,0,1,.475.076.986.986,0,0,1,.356.211.84.84,0,0,1,.176.274.926.926,0,0,1,.062.343v.008a.926.926,0,0,1-.051.317.8.8,0,0,1-.141.249.85.85,0,0,1-.215.185,1.052,1.052,0,0,1-.274.119l.773,1.084h-.593l-.7-1h-.63v1h-.5Z" transform="translate(181.089 -309.272)" fill="#fff"/>
          </g>
        </g>
        <path id="Path_1729" data-name="Path 1729" d="M-473.63,254.7a11.945,11.945,0,0,0-5.878-1.477,12.317,12.317,0,0,0-6.082,1.543,11.528,11.528,0,0,0-4.382,4.288,12.145,12.145,0,0,0-1.607,6.258,12.239,12.239,0,0,0,1.607,6.291,11.288,11.288,0,0,0,4.382,4.264,12.308,12.308,0,0,0,6.036,1.513,12.953,12.953,0,0,0,6.921-1.78,10.82,10.82,0,0,0,4.363-5.335l-6.445-1.314a5.09,5.09,0,0,1-4.856,2.632A4.525,4.525,0,0,1-482.7,270.4a5.921,5.921,0,0,1-1.769-3.22h16.715v-1.86a12.79,12.79,0,0,0-1.636-6.374A11.038,11.038,0,0,0-473.63,254.7Zm-10.683,8.026a4.785,4.785,0,0,1,1.86-2.633,5.062,5.062,0,0,1,2.95-.949,4.683,4.683,0,0,1,2.857.906,4.818,4.818,0,0,1,1.723,2.678Z" transform="translate(491.581 -231.887)" fill="#fff"/>
        <path id="Path_1753" data-name="Path 1753" d="M-317.1,256.262a14.31,14.31,0,0,0-6.819-1.662,14.559,14.559,0,0,0-6.891,1.662,12.835,12.835,0,0,0-4.985,4.617,12.488,12.488,0,0,0-1.854,6.772,12.613,12.613,0,0,0,1.854,6.794,12.766,12.766,0,0,0,4.985,4.645,14.546,14.546,0,0,0,6.891,1.653,14.3,14.3,0,0,0,6.819-1.653,12.652,12.652,0,0,0,4.941-4.645,12.767,12.767,0,0,0,1.828-6.793,12.633,12.633,0,0,0-1.828-6.774A12.726,12.726,0,0,0-317.1,256.262Zm-1.68,14.724A6.118,6.118,0,0,1-321,273.26a5.652,5.652,0,0,1-2.915.814,6.133,6.133,0,0,1-3.04-.788,5.878,5.878,0,0,1-2.247-2.274,6.678,6.678,0,0,1-.84-3.36,6.56,6.56,0,0,1,.84-3.339,6.117,6.117,0,0,1,2.247-2.274,5.976,5.976,0,0,1,3.04-.814,5.658,5.658,0,0,1,2.915.814,6.139,6.139,0,0,1,2.223,2.274,6.589,6.589,0,0,1,.839,3.339,6.57,6.57,0,0,1-.839,3.328Z" transform="translate(398.016 -232.724)" fill="#fff"/>
        <path id="Path_1754" data-name="Path 1754" d="M-231.416,241.318a12.117,12.117,0,0,0-4.421-4.668,11.557,11.557,0,0,0-6.054-1.681,11.068,11.068,0,0,0-7.708,2.718V222.468H-257.5v38.047h7.906v-1.976a11.063,11.063,0,0,0,7.708,2.718,11.671,11.671,0,0,0,6.054-1.653,11.854,11.854,0,0,0,4.421-4.671,14.1,14.1,0,0,0,1.631-6.817A13.973,13.973,0,0,0-231.416,241.318Zm-7.807,11.439a5.651,5.651,0,0,1-4.3,1.78,5.816,5.816,0,0,1-3.014-.814,6.116,6.116,0,0,1-2.223-2.274,6.565,6.565,0,0,1-.84-3.333,6.611,6.611,0,0,1,.84-3.313,6.08,6.08,0,0,1,2.223-2.3,5.827,5.827,0,0,1,3.014-.814,5.616,5.616,0,0,1,4.3,1.8,6.515,6.515,0,0,1,1.681,4.629,6.482,6.482,0,0,1-1.678,4.633Z" transform="translate(349.29 -213.191)" fill="#fff"/>
        <path id="Union_12" data-name="Union 12" d="M17.844,33.841a17.741,17.741,0,0,1-3.776-.4c-5.64-1.5-8.139-5.752-9.221-9.718-.087-.319-.161-.622-.237-.923v-.064h0a21.2,21.2,0,0,1-.443-2.868c-.018-.208-.034-.4-.034-.605V15.632H0V9.864H4.127V.049h6.038V9.864h6.757v5.767H10.165v4.461s.127,6.291,6.47,6.819c.65.052,1.249.074,1.8.072a5.8,5.8,0,0,0,2.9-1.682c.087-.08.178-.144.259-.224a5.4,5.4,0,0,0,1.445-3.887V5.545H14.753V0H31.18V21.207a12.81,12.81,0,0,1-1.675,6.548,11.646,11.646,0,0,1-4.7,4.491,14.481,14.481,0,0,1-6.591,1.6C18.092,33.846,17.971,33.845,17.844,33.841Z" transform="translate(25.166 14.216)" fill="#fff" stroke="rgba(0,0,0,0)" stroke-miterlimit="10" stroke-width="1"/>
        <path id="Path_1735" data-name="Path 1735" d="M-371.17,200.644a5.09,5.09,0,0,1,2.075.419,5.3,5.3,0,0,1,2.777,2.777,5.089,5.089,0,0,1,.419,2.075,5.148,5.148,0,0,1-.419,2.046,5.309,5.309,0,0,1-1.123,1.682,5.393,5.393,0,0,1-1.653,1.123,5.078,5.078,0,0,1-2.075.419,5.135,5.135,0,0,1-2.046-.419,5.154,5.154,0,0,1-2.8-2.8,5.143,5.143,0,0,1-.419-2.046,5.084,5.084,0,0,1,.419-2.075,5.394,5.394,0,0,1,1.122-1.655,5.306,5.306,0,0,1,1.682-1.122A5.151,5.151,0,0,1-371.17,200.644Z" transform="translate(422.244 -200.644)" fill="#fff"/>
      </g>
      <path id="Path_1762" data-name="Path 1762" d="M.909,14.09a14.626,14.626,0,0,1-4.483-.637A13.376,13.376,0,0,1-7.043,11.8,10.667,10.667,0,0,1-9.5,9.535,9.593,9.593,0,0,1-10.94,7.009l6.8-2.69A5.056,5.056,0,0,0-2.064,6.986,5.579,5.579,0,0,0,.909,7.86,5.46,5.46,0,0,0,5.039,6.208,6.558,6.558,0,0,0,6.62,1.487V.214H6.152A7.693,7.693,0,0,1-.46,3.14a9.9,9.9,0,0,1-3.917-.831A11.231,11.231,0,0,1-7.869-.046,11.527,11.527,0,0,1-10.37-3.8a12.662,12.662,0,0,1-.95-5,12.662,12.662,0,0,1,.95-5,11.527,11.527,0,0,1,2.5-3.752,11.231,11.231,0,0,1,3.492-2.36A9.9,9.9,0,0,1-.46-20.747a7.693,7.693,0,0,1,6.613,2.931h.475v-2.171h6.789V1.153a15.054,15.054,0,0,1-.874,5.223,11.811,11.811,0,0,1-2.5,4.1A11.134,11.134,0,0,1,6.1,13.141,13.628,13.628,0,0,1,.909,14.09ZM1.192-3.28A5.663,5.663,0,0,0,3.15-3.636,5.472,5.472,0,0,0,4.9-4.674a5.021,5.021,0,0,0,1.256-1.72A5.765,5.765,0,0,0,6.627-8.8a5.765,5.765,0,0,0-.475-2.407A5.021,5.021,0,0,0,4.9-12.931,5.472,5.472,0,0,0,3.15-13.969a5.662,5.662,0,0,0-1.958-.356,5.662,5.662,0,0,0-1.958.356,5.472,5.472,0,0,0-1.746,1.039,5.021,5.021,0,0,0-1.251,1.722A5.765,5.765,0,0,0-4.238-8.8a5.765,5.765,0,0,0,.475,2.407A5.021,5.021,0,0,0-2.513-4.672,5.472,5.472,0,0,0-.767-3.633,5.663,5.663,0,0,0,1.192-3.28Z" transform="translate(89.321 88.023)" fill="#fff"/>
    </g>
  </g>
</svg>
