<svg xmlns="http://www.w3.org/2000/svg" width="17.043" height="17.051" viewBox="0 0 17.043 17.051">
  <g id="Group_278" data-name="Group 278" transform="translate(-61.538 66.681)">
    <path id="Path_238" data-name="Path 238" d="M65.9-66.681h8.321c.174.028.35.046.522.085a4.644,4.644,0,0,1,3.7,3.511c.069.249.094.509.139.764V-54c-.011.059-.017.12-.032.178A7.843,7.843,0,0,1,78.19-52.5a4.557,4.557,0,0,1-4.334,2.849c-2.529.035-5.059.01-7.588.008a4.537,4.537,0,0,1-2.688-.835,4.632,4.632,0,0,1-2.038-3.958q-.01-3.727,0-7.455a4.54,4.54,0,0,1,.086-.958,4.625,4.625,0,0,1,3.5-3.693C65.384-66.611,65.645-66.636,65.9-66.681Zm11.17,8.523q0-1.847,0-3.694A3.393,3.393,0,0,0,76.9-63a3.189,3.189,0,0,0-3.122-2.173c-2.479,0-4.958-.008-7.437.007a3.6,3.6,0,0,0-1.109.171,3.152,3.152,0,0,0-2.179,3.11q-.005,3.718,0,7.437a3.314,3.314,0,0,0,.173,1.128,3.179,3.179,0,0,0,3.094,2.164q3.743.01,7.487,0a3.151,3.151,0,0,0,2.678-1.357,3.2,3.2,0,0,0,.587-1.939Q77.068-56.3,77.07-58.158Z" transform="translate(0)" fill="#8635a3"/>
    <path id="Path_239" data-name="Path 239" d="M194.2,61.52a4.391,4.391,0,1,1-4.4-4.39A4.41,4.41,0,0,1,194.2,61.52Zm-1.515,0a2.876,2.876,0,1,0-2.875,2.878A2.88,2.88,0,0,0,192.689,61.52Z" transform="translate(-119.752 -119.683)" fill="#8635a3"/>
    <path id="Path_240" data-name="Path 240" d="M422.184,18.879a1.1,1.1,0,1,1-1.133,1.086A1.11,1.11,0,0,1,422.184,18.879Z" transform="translate(-347.523 -82.706)" fill="#8635a3"/>
  </g>
</svg>
