<svg xmlns="http://www.w3.org/2000/svg" width="24.018" height="23.999" viewBox="0 0 24.018 23.999">
  <g id="Group_28" data-name="Group 28" transform="translate(0.001 -0.001)">
    <path id="Path_4" data-name="Path 4" d="M-324.545-331.439h-12.378l-.3-.04a6.185,6.185,0,0,1-3.546-1.671,6.113,6.113,0,0,1-1.94-4.269c-.032-.684-.008-1.371-.008-2.056v-8.79a10.446,10.446,0,0,1,.124-2.182,6.183,6.183,0,0,1,1.582-3.041,6.057,6.057,0,0,1,3.133-1.787c.3-.068.615-.11.922-.163h12.446c.253.037.509.06.759.112a6.239,6.239,0,0,1,5.036,6.093c.009.834,0,1.668,0,2.5v8.81a6.446,6.446,0,0,1-.472,2.608,6.14,6.14,0,0,1-4.336,3.7C-323.854-331.528-324.2-331.5-324.545-331.439Zm-6.137-21.942h-5.725a4,4,0,0,0-1.808.382,4.062,4.062,0,0,0-2.436,3.677c-.042,1.01-.008,2.022-.009,3.033,0,2.879-.015,5.759,0,8.638a4.052,4.052,0,0,0,2.007,3.563,4.131,4.131,0,0,0,2.314.618c.982-.009,1.965,0,2.948,0h7.827a6.009,6.009,0,0,0,1.995-.233,4.183,4.183,0,0,0,2.786-3.573c.045-.706.027-1.416.028-2.124v-4.61c0-1.537,0-3.084.005-4.627a5.843,5.843,0,0,0-.232-1.927,4.181,4.181,0,0,0-3.857-2.813c-1.946-.014-3.894,0-5.843,0Z" transform="translate(342.728 355.439)" fill="#fff"/>
    <path id="Path_5" data-name="Path 5" d="M-160.426-167.436a5.978,5.978,0,0,1-5.984-5.975,5.992,5.992,0,0,1,5.978-5.969,5.976,5.976,0,0,1,5.968,5.937,5.961,5.961,0,0,1-1.73,4.245,5.961,5.961,0,0,1-4.232,1.762Zm.009-1.823a4.16,4.16,0,0,0,2.963-1.265,4.16,4.16,0,0,0,1.172-3,4.181,4.181,0,0,0-4.235-4.034,4.182,4.182,0,0,0-4.069,4.17,4.156,4.156,0,0,0,4.169,4.13Z" transform="translate(172.454 185.415)" fill="#fff"/>
    <path id="Path_6" data-name="Path 6" d="M163.948-237.83a1.387,1.387,0,0,1-.412.984,1.387,1.387,0,0,1-.988.4,1.367,1.367,0,0,1-1.35-1.374,1.371,1.371,0,0,1,1.356-1.387,1.387,1.387,0,0,1,1.394,1.376Z" transform="translate(-143.922 243.191)" fill="#fff"/>
  </g>
</svg>
