<svg xmlns="http://www.w3.org/2000/svg" width="24.018" height="23.999" viewBox="0 0 24.018 23.999">
  <g id="Group_30" data-name="Group 30" transform="translate(0.001 -0.001)">
    <path id="Path_4" data-name="Path 4" d="M-324.545-331.439h-12.378l-.3-.04a6.185,6.185,0,0,1-3.546-1.671,6.113,6.113,0,0,1-1.94-4.269c-.032-.684-.008-1.371-.008-2.056v-8.79a10.446,10.446,0,0,1,.124-2.182,6.183,6.183,0,0,1,1.582-3.041,6.057,6.057,0,0,1,3.133-1.787c.3-.068.615-.11.922-.163h12.446c.253.037.509.06.759.112a6.239,6.239,0,0,1,5.036,6.093c.009.834,0,1.668,0,2.5v8.81a6.446,6.446,0,0,1-.472,2.608,6.14,6.14,0,0,1-4.336,3.7C-323.854-331.528-324.2-331.5-324.545-331.439Zm-6.137-21.942h-5.725a4,4,0,0,0-1.808.382,4.062,4.062,0,0,0-2.436,3.677c-.042,1.01-.008,2.022-.009,3.033,0,2.879-.015,5.759,0,8.638a4.052,4.052,0,0,0,2.007,3.563,4.131,4.131,0,0,0,2.314.618c.982-.009,1.965,0,2.948,0h7.827a6.009,6.009,0,0,0,1.995-.233,4.183,4.183,0,0,0,2.786-3.573c.045-.706.027-1.416.028-2.124v-4.61c0-1.537,0-3.084.005-4.627a5.843,5.843,0,0,0-.232-1.927,4.181,4.181,0,0,0-3.857-2.813c-1.946-.014-3.894,0-5.843,0Z" transform="translate(342.728 355.439)" fill="#fff"/>
    <g id="Group_31" data-name="Group 31" transform="translate(5.164 4.954)">
      <path id="Path_7" data-name="Path 7" d="M-41.629-66.292h-2.805v-.193c0-1.506.01-3.011-.006-4.517a5.183,5.183,0,0,0-.15-1.2,1.218,1.218,0,0,0-1.278-.977,1.61,1.61,0,0,0-1.271.4,1.61,1.61,0,0,0-.529,1.224c-.047.469-.045.945-.047,1.418-.005,1.226,0,2.453,0,3.679v.157h-2.752V-75.45h2.748v1.172a7.335,7.335,0,0,1,.51-.568,2.975,2.975,0,0,1,1.67-.739,4.712,4.712,0,0,1,1.664.086,2.571,2.571,0,0,1,1.991,1.915,7.059,7.059,0,0,1,.252,1.98c.007,1.706,0,3.412,0,5.118C-41.629-66.431-41.629-66.371-41.629-66.292Z" transform="translate(55.318 80.052)" fill="#fff"/>
      <path id="Path_8" data-name="Path 8" d="M-174.761-70.814v9.15h-2.827v-9.15Z" transform="translate(177.807 75.415)" fill="#fff"/>
      <path id="Path_9" data-name="Path 9" d="M-181.909-193.765a1.68,1.68,0,0,1-1.679-1.659,1.677,1.677,0,0,1,1.659-1.678,1.679,1.679,0,0,1,1.679,1.658,1.681,1.681,0,0,1-1.659,1.679Z" transform="translate(183.588 197.102)" fill="#fff"/>
    </g>
  </g>
</svg>
