<svg xmlns="http://www.w3.org/2000/svg" width="25.712" height="25.717" viewBox="0 0 25.712 25.717">
  <path id="Path_2237" data-name="Path 2237" d="M494.031-345.766c.053-.32.121-.728.191-1.137q.321-1.872.643-3.743c.073-.425.128-.855.222-1.275a1.938,1.938,0,0,1,.244-.485.656.656,0,0,1,.12-.124l7.7-7.7,5.107-5.107,4.419-4.419a.853.853,0,0,1,1.368-.005l5.374,5.374a.846.846,0,0,1,0,1.332l-10.039,10.04s-4.724,4.728-7.191,7.2a1.789,1.789,0,0,1-1.069.451q-2.391.407-4.78.819c-.318.054-.636.108-.955.151a.784.784,0,0,1-.689-.248c-.142-.144-.286-.285-.428-.429A.858.858,0,0,1,494.031-345.766Zm1.76-.392a.816.816,0,0,0,.1,0c1.554-.265,3.107-.538,4.663-.792a1.473,1.473,0,0,0,.854-.447q5.981-6,11.98-11.989a1.336,1.336,0,0,1,.177-.126l-4.387-4.431a1.581,1.581,0,0,1-.134.181q-5.5,5.5-11,11.006c-.416.416-.834.831-1.247,1.25a.448.448,0,0,0-.123.2c-.048.219-.076.442-.114.663q-.3,1.762-.6,3.523C495.9-346.8,495.848-346.489,495.791-346.158Zm21.889-17.547-4.313-4.313-2.95,2.95,4.291,4.334Z" transform="translate(-494.03 370.099)" fill="#b1bcce"/>
</svg>
