<svg xmlns="http://www.w3.org/2000/svg" width="35" height="35" viewBox="0 0 35 35">
  <g id="Group_10895" data-name="Group 10895" transform="translate(-316.98 -459.98)">
    <g id="Ellipse_62" data-name="Ellipse 62" transform="translate(316.98 459.98)" fill="none" stroke="#ebecf8" stroke-width="1">
      <circle cx="17.5" cy="17.5" r="17.5" stroke="none"/>
      <circle cx="17.5" cy="17.5" r="17" fill="none"/>
    </g>
    <path id="Path_1562" data-name="Path 1562" d="M4.868-9.081v-1.2a5.22,5.22,0,0,1,.054-.816,2,2,0,0,1,.2-.609,2.458,2.458,0,0,1,.37-.522q.228-.25.555-.6l1.675-1.7a1.913,1.913,0,0,0,.544-1.414,1.83,1.83,0,0,0-.555-1.381,1.943,1.943,0,0,0-1.4-.533,1.977,1.977,0,0,0-1.5.62,2.484,2.484,0,0,0-.674,1.512l-2.784-.218a5.63,5.63,0,0,1,.544-1.86,4.412,4.412,0,0,1,1.077-1.381A4.61,4.61,0,0,1,4.5-20.034a5.956,5.956,0,0,1,1.914-.294,5.644,5.644,0,0,1,1.816.283,4.337,4.337,0,0,1,1.457.816,3.657,3.657,0,0,1,.968,1.327A4.484,4.484,0,0,1,11-16.086a3.719,3.719,0,0,1-.2,1.262,4.1,4.1,0,0,1-.522,1,6.45,6.45,0,0,1-.75.87q-.424.413-.9.87-.3.283-.522.5a2.483,2.483,0,0,0-.359.446,1.673,1.673,0,0,0-.207.522,3.306,3.306,0,0,0-.065.707v.827ZM4.433-6.058a1.616,1.616,0,0,1,.511-1.2,1.694,1.694,0,0,1,1.229-.5,1.746,1.746,0,0,1,1.218.479A1.532,1.532,0,0,1,7.914-6.1,1.616,1.616,0,0,1,7.4-4.9a1.694,1.694,0,0,1-1.229.5,1.718,1.718,0,0,1-.663-.131,1.892,1.892,0,0,1-.555-.348,1.617,1.617,0,0,1-.381-.522A1.531,1.531,0,0,1,4.433-6.058Z" transform="translate(328.354 490.173)" fill="#6e7b90"/>
  </g>
</svg>
