<svg xmlns="http://www.w3.org/2000/svg" width="28.166" height="28.169" viewBox="0 0 28.166 28.169">
  <path id="Path_7793" data-name="Path 7793" d="M-1182.939,45.082l.291-.414a11.424,11.424,0,0,0,2.081-6.692,11.57,11.57,0,0,0-.931-4.6,11.651,11.651,0,0,0-6.3-6.3,11.857,11.857,0,0,0-9.2,0,11.653,11.653,0,0,0-6.3,6.294,11.85,11.85,0,0,0,0,9.2,11.651,11.651,0,0,0,6.294,6.3,10.883,10.883,0,0,0,4.6.933,11.271,11.271,0,0,0,6.7-2.081l.415-.29,6.414,6.4a1.459,1.459,0,0,0,1.147.494,1.685,1.685,0,0,0,1.672-1.665v0a1.559,1.559,0,0,0-.469-1.146Zm-3.447-1.088a8.583,8.583,0,0,1-6.026,2.491h-.018a8.472,8.472,0,0,1-6.025-2.512,8.47,8.47,0,0,1-2.485-6.035,8.476,8.476,0,0,1,2.51-6.026,8.477,8.477,0,0,1,6.019-2.485h.021a8.54,8.54,0,0,1,8.51,8.543A8.255,8.255,0,0,1-1186.386,43.994Z" transform="translate(1204.217 -26.15)" fill="#052a69"/>
</svg>
