<svg xmlns="http://www.w3.org/2000/svg" width="17.77" height="17.772" viewBox="0 0 17.77 17.772">
  <path id="Path_7793" data-name="Path 7793" d="M-1190.793,38.094l.184-.261a7.207,7.207,0,0,0,1.313-4.222,7.3,7.3,0,0,0-.587-2.9,7.35,7.35,0,0,0-3.972-3.974,7.481,7.481,0,0,0-5.8,0,7.351,7.351,0,0,0-3.972,3.971,7.476,7.476,0,0,0,0,5.8,7.351,7.351,0,0,0,3.971,3.973,6.865,6.865,0,0,0,2.9.589,7.11,7.11,0,0,0,4.225-1.313l.262-.183,4.046,4.035a.92.92,0,0,0,.724.312,1.063,1.063,0,0,0,1.054-1.051v0a.984.984,0,0,0-.3-.723Zm-2.174-.686a5.415,5.415,0,0,1-3.8,1.571h-.011a5.345,5.345,0,0,1-3.8-1.585,5.343,5.343,0,0,1-1.568-3.808,5.348,5.348,0,0,1,1.583-3.8,5.348,5.348,0,0,1,3.8-1.568h.013a5.388,5.388,0,0,1,5.369,5.39A5.209,5.209,0,0,1-1192.967,37.408Z" transform="translate(1204.217 -26.15)" fill="#f2b129"/>
</svg>
