<svg id="Group_10811" data-name="Group 10811" xmlns="http://www.w3.org/2000/svg" xmlns:xlink="http://www.w3.org/1999/xlink" width="25.725" height="29.435" viewBox="0 0 25.725 29.435">
  <defs>
    <clipPath id="clip-path">
      <rect id="Rectangle_1155" data-name="Rectangle 1155" width="25.725" height="29.434" fill="#fff"/>
    </clipPath>
  </defs>
  <g id="Group_10810" data-name="Group 10810" clip-path="url(#clip-path)">
    <path id="Path_2230" data-name="Path 2230" d="M13.554,0h5.054a1,1,0,0,1,.664,1.029,5.177,5.177,0,0,0,.116.995,5.584,5.584,0,0,0,5.365,4.425.893.893,0,0,1,.97.994q0,2.2,0,4.394a.888.888,0,0,1-.988.968A11.834,11.834,0,0,1,19.8,11.683l-.543-.256v.382c0,2.585.019,5.17-.011,7.755A11.971,11.971,0,0,1,19,21.952,9.588,9.588,0,0,1,7.672,29.209a9.437,9.437,0,0,1-7.35-6.963A16.563,16.563,0,0,1,0,20.567V18.958c.066-.384.117-.771.2-1.152a9.642,9.642,0,0,1,9.248-7.65c.7-.008,1.053.319,1.054,1.013q0,2.125,0,4.25c0,.727-.279,1.027-1,1.077a3.286,3.286,0,1,0,3.417,3.178q0-9.29-.007-18.581A1.044,1.044,0,0,1,13.554,0m1.089,1.737v.379q0,8.817,0,17.634a5.02,5.02,0,1,1-6.124-4.858c.193-.044.245-.121.244-.3-.008-.8,0-1.608,0-2.412a2.244,2.244,0,0,0-.028-.24c-.153.023-.283.041-.414.062a7.9,7.9,0,1,0,9.2,7.969c.017-3.312.007-6.625,0-9.937A.933.933,0,0,1,18,9.092a.922.922,0,0,1,1.017.142,9.306,9.306,0,0,0,2.956,1.418c.648.176,1.315.286,2.016.434,0-.99,0-1.9-.01-2.805,0-.061-.143-.16-.231-.174a7.275,7.275,0,0,1-5.194-3.514,7.252,7.252,0,0,1-.981-2.856Z" fill="#fff"/>
  </g>
</svg>
