<svg xmlns="http://www.w3.org/2000/svg" width="24.897" height="20.474" viewBox="0 0 24.897 20.474">
  <g id="Layer_2" data-name="Layer 2" transform="translate(0 0)">
    <g id="Layer_1" data-name="Layer 1">
      <path id="Path_3" data-name="Path 3" d="M7.345,15.957a5.368,5.368,0,0,1-4.779-3.609H4.639C1.97,11.021.642,9.272.8,7.213l2,.579.1-.112C.73,5.8.336,3.559,1.441.829a15.009,15.009,0,0,0,10.6,5.421c.031-.715.011-1.382.1-2.036A5.107,5.107,0,0,1,16.9-.067a5.3,5.3,0,0,1,3.722,1.245,1.17,1.17,0,0,0,.9.211A17.806,17.806,0,0,0,23.414.717c.252-.1.5-.216.832-.363A6.034,6.034,0,0,1,22.289,3l.071.13,2.425-.648.112.112c-.681.692-1.344,1.4-2.053,2.066a1.027,1.027,0,0,0-.407.784,15.579,15.579,0,0,1-2.849,8.915,13.8,13.8,0,0,1-9.873,5.9A14.789,14.789,0,0,1,.629,18.606,3.087,3.087,0,0,1,0,18.169a10.986,10.986,0,0,0,7.345-2.212Z" transform="translate(0 0.075)" fill="#fff"/>
    </g>
  </g>
</svg>
