<svg xmlns="http://www.w3.org/2000/svg" width="18.602" height="15.199" viewBox="0 0 18.602 15.199">
  <path id="Path_237" data-name="Path 237" d="M69.155-8.05A3.845,3.845,0,0,1,66.605-9.1a3.738,3.738,0,0,1-1.015-1.606,4.071,4.071,0,0,0,1.66-.069,3.923,3.923,0,0,1-3.031-3.82,4,4,0,0,0,1.7.473,3.925,3.925,0,0,1-1.146-5.121,10.993,10.993,0,0,0,7.912,4.023c-.024-.229-.057-.437-.067-.646a3.761,3.761,0,0,1,2.62-3.866,3.689,3.689,0,0,1,3.8.826.4.4,0,0,0,.459.124c.36-.128.736-.211,1.092-.349s.695-.317,1.068-.491a4.175,4.175,0,0,1-1.562,2.076c.226-.042.454-.075.677-.127s.471-.12.7-.194.441-.158.693-.25a6.748,6.748,0,0,1-1.532,1.669.841.841,0,0,0-.359.752,10.955,10.955,0,0,1-5.226,9.421,9.838,9.838,0,0,1-4.1,1.427,11.207,11.207,0,0,1-4.625-.331A10.8,10.8,0,0,1,63.6-6.395a.086.086,0,0,1-.04-.043A8.318,8.318,0,0,0,66.5-6.7,7.694,7.694,0,0,0,69.155-8.05Z" transform="translate(-63.56 19.941)" fill="#28a6de"/>
</svg>
