<svg xmlns="http://www.w3.org/2000/svg" width="17.123" height="17.092" viewBox="0 0 17.123 17.092">
  <path id="Path_235" data-name="Path 235" d="M200.3,59.766a9.436,9.436,0,0,1,.592,3.859,11.646,11.646,0,0,1-.517,2.174,8.421,8.421,0,0,1-2.6,3.589c-.064.052-.122.111-.183.166-.053.032-.109.061-.159.1a8.278,8.278,0,0,1-6.891,1.284,8.611,8.611,0,0,1-2.809-1.312c-.085-.074-.168-.152-.256-.223a8.157,8.157,0,0,1-3.14-5.707c-.005-.082-.006-.165-.016-.247a7.044,7.044,0,0,1,.064-1.854,13.512,13.512,0,0,1,.476-1.756c.092-.193.182-.388.277-.58a8.56,8.56,0,0,1,2.977-3.349,8.669,8.669,0,0,1,3.338-1.225A8.224,8.224,0,0,1,196.9,55.79c.036.021.074.037.111.056A8.759,8.759,0,0,1,200.3,59.766Zm-.709.174a1.324,1.324,0,0,0-.234-.5A7.537,7.537,0,0,0,195,55.658a4.776,4.776,0,0,0-1.344-.3c.146.164.237.271.334.373a10.625,10.625,0,0,1,1.35,1.792A12.506,12.506,0,0,1,196.4,59.94a11.85,11.85,0,0,1,.38,2.427c0,.136.055.2.207.2q1.53-.008,3.061,0c.121,0,.162-.036.15-.163A6.912,6.912,0,0,0,199.593,59.94Zm-14.072.164A6.707,6.707,0,0,0,185,62.266c-.025.228.049.259.243.258.966-.007,1.933-.01,2.9,0,.229,0,.317-.069.32-.3a9.6,9.6,0,0,1,.291-1.967,10.8,10.8,0,0,1,2.8-4.926,7.514,7.514,0,0,0-4.938,2.826A6.1,6.1,0,0,0,185.521,60.1Zm3.874.5a8.272,8.272,0,0,0-.262,1.656c-.023.258.051.312.294.311,2.145-.008,4.29,0,6.435,0,.052,0,.1,0,.156,0,.089,0,.131-.029.122-.129a8.544,8.544,0,0,0-.283-1.842,9.6,9.6,0,0,0-3.065-5.12c-.154-.142-.233-.082-.356.027a9.758,9.758,0,0,0-2.5,3.42A6.337,6.337,0,0,0,189.4,60.605Zm6.517,4.313.039-.1.008-.07a9.177,9.177,0,0,0,.172-1.231c.034-.255-.031-.315-.28-.313-1.382.011-2.765.005-4.147.005H189.4c-.139,0-.272-.017-.258.2a6.53,6.53,0,0,0,.193,1.413,2.188,2.188,0,0,0,.033.308,9.937,9.937,0,0,0,3.087,5.153c.154.137.228.122.37-.007a10.02,10.02,0,0,0,2.507-3.437A7.01,7.01,0,0,0,195.912,64.918Zm-4.344,5.532c-.01-.056-.008-.069-.014-.075-.075-.086-.15-.173-.228-.257a10.32,10.32,0,0,1-2.851-6.644c-.012-.2-.081-.241-.261-.24-.874.007-1.748,0-2.622,0-.646,0-.645,0-.553.647a7.516,7.516,0,0,0,3.236,5.285A7.386,7.386,0,0,0,191.568,70.451Zm2.072-.009a7.613,7.613,0,0,0,4.879-2.769,7.482,7.482,0,0,0,1.683-4.185c.022-.228-.043-.281-.261-.279-.884.011-1.768,0-2.652,0-.482,0-.479,0-.511.489a10.2,10.2,0,0,1-1.382,4.48A11.368,11.368,0,0,1,193.64,70.442Z" transform="translate(-184.032 -54.35)" fill="#868686" stroke="#868686" stroke-width="0.5"/>
</svg>
