<svg xmlns="http://www.w3.org/2000/svg" width="35.018" height="23.999" viewBox="0 0 35.018 23.999">
  <g id="Group_34" data-name="Group 34" transform="translate(-316.999 -3858.001)">
    <g id="Group_33" data-name="Group 33" transform="translate(317 3858)">
      <path id="Path_4" data-name="Path 4" d="M-313.545-331.439h-23.378l-.3-.04a6.185,6.185,0,0,1-3.546-1.671,6.113,6.113,0,0,1-1.94-4.269c-.032-.684-.008-1.371-.008-2.056v-8.79a10.446,10.446,0,0,1,.124-2.182,6.183,6.183,0,0,1,1.582-3.041,6.057,6.057,0,0,1,3.133-1.787c.3-.068.615-.11.922-.163h23.446c.253.037.509.06.759.112a6.239,6.239,0,0,1,5.036,6.093c.009.834,0,1.668,0,2.5v8.81a6.446,6.446,0,0,1-.472,2.608,6.14,6.14,0,0,1-4.336,3.7C-312.854-331.528-313.2-331.5-313.545-331.439Zm-17.137-21.942h-5.725a4,4,0,0,0-1.808.382,4.062,4.062,0,0,0-2.436,3.677c-.042,1.01-.008,2.022-.009,3.033,0,2.879-.015,5.759,0,8.638a4.052,4.052,0,0,0,2.007,3.563,4.131,4.131,0,0,0,2.314.618c.982-.009,1.965,0,2.948,0h18.827a6.009,6.009,0,0,0,1.995-.233,4.183,4.183,0,0,0,2.786-3.573c.045-.706.027-1.416.028-2.124v-4.61c0-1.537,0-3.084.005-4.627a5.843,5.843,0,0,0-.232-1.927,4.181,4.181,0,0,0-3.857-2.813c-1.946-.014-14.894,0-16.843,0Z" transform="translate(342.728 355.439)" fill="#fff"/>
    </g>
    <path id="Path_10" data-name="Path 10" d="M331.6,3873.865l5.846-4.2-5.846-4.2Z" transform="translate(1.287 0.372)" fill="#fff"/>
  </g>
</svg>
